<svg id="Layer_1" data-name="Layer 1" xmlns="http://www.w3.org/2000/svg" viewBox="0 0 128.62 152.19"><defs><style>.cls-1{fill:none;stroke:#043486;stroke-miterlimit:10;stroke-width:2px;}</style></defs><title>b-f1</title><path class="cls-1" d="M132.4,85.41s-36.9,13.16-43.09,31S63,151,55.24,153.28c-14.5,4.27-7.67-2.71,3.76-12.28,12.25-10.25,22.49-21.58,28.5-25.65,5.38-3.65,27.32-33.21,13.68-69.16C88.44,12.62,64.42-5.87,51.26,10.31a11.91,11.91,0,0,0-2.57,6.06c-.43,3.36-.78,9.77-.29,21.69,0,0-.26,9-6.84,13.67S22.34,62.44,26.08,84.25s22.71,39,38.32,35.87S84.92,110.19,74.21,92,29.31,64.38,16.79,80.38-7.42,127.77,34,139c0,0,25.63,6.8,51.18-22.1,0,0,12.13-11.36,16-3.87s-8.78,11.22-9.94,8.51S92.53,98.44,132.4,99" transform="translate(-4.11 -3.37)"/></svg>