<svg xmlns="http://www.w3.org/2000/svg" width="24" height="24" viewBox="0 0 24 24">
    <g fill="none" fill-rule="evenodd">
        <path fill="#FFF" fill-opacity="0" d="M0 0h24v24H0z"/>
        <path fill="#46433F" stroke="#46433F" stroke-width=".15" d="M22.79 1.21a.714.714 0 0 1 0 1.009L13.01 12l9.782 9.781c.25.251.276.642.075.921l-.075.089a.714.714 0 0 1-1.01 0L12 13.009l-9.781 9.782a.714.714 0 1 1-1.01-1.01L10.991 12 1.209 2.219a.714.714 0 0 1-.075-.921l.075-.089a.714.714 0 0 1 1.01 0L12 10.991l9.781-9.782a.714.714 0 0 1 1.01 0z"/>
    </g>
</svg>
