<svg xmlns="http://www.w3.org/2000/svg" width="24" height="24" viewBox="0 0 24 24">
    <g fill="none" fill-rule="evenodd">
        <path fill="#FFF" fill-opacity="0" d="M0 0h24v24H0z"/>
        <path fill="#424242" fill-rule="nonzero" d="M13.893.673l8.37 6.81A2 2 0 0 1 23 9.032v10.904c0 .085-.043.166-.124.244C22.073 22.343 17.509 24 12 24c-5.51 0-10.073-1.657-10.875-3.819-.082-.078-.125-.159-.125-.244V9.034a2 2 0 0 1 .738-1.552L10.107.673a3 3 0 0 1 3.786 0zM14.5 15.5h-5v6.873l.242.024a24.585 24.585 0 0 0 4.517 0l.242-.024L14.5 15.5zm.464 6.82l-.441.05c.148-.015.295-.031.441-.05zm-5.486.05c-.015 0-.03-.002-.045-.004zm-.904-.111l.254.035a22.52 22.52 0 0 1-.253-.035zm6.851 0l-.37.05c.125-.016.248-.032.37-.05zm.509-.08l-.175.03zm-7.85.004l.157.025a21.564 21.564 0 0 1-.156-.025zm2.97-20.347l-8.37 6.81a.5.5 0 0 0-.184.388v10.54l.031.085C2.9 20.65 5.043 21.662 8 22.17L8 14h8v8.169l.045-.008c2.933-.51 5.058-1.516 5.425-2.502l.03-.082V9.034a.5.5 0 0 0-.184-.388l-8.37-6.81a1.5 1.5 0 0 0-1.893 0z"/>
    </g>
</svg>
