<svg xmlns="http://www.w3.org/2000/svg" xmlns:xlink="http://www.w3.org/1999/xlink" width="58" height="58" viewBox="0 0 58 58">
    <defs>
        <path id="prefix__a" d="M0 0.198L57.802 0.198 57.802 58 0 58z"/>
    </defs>
    <g fill="none" fill-rule="evenodd">
        <g>
            <path fill="#27BCBD" d="M14.648 16.361v-5.103h.77v1.8h.97v.674h-.97v2.215c0 .157-.021.266-.064.325-.043.06-.133.09-.271.09h-.435zm-2.783 1.933c-.176 0-.32-.054-.431-.163-.112-.108-.168-.249-.168-.422V16h.792v1.473c0 .094.031.14.093.14h3.445v.379c0 .202-.107.303-.32.303h-3.41zm-1.006-4.999c0 .197.031.37.093.515.062.146.143.266.243.363.1.096.214.169.342.218.129.05.257.074.385.074.157 0 .3-.028.428-.085.129-.057.238-.137.329-.24.09-.104.16-.228.21-.37.05-.144.075-.302.075-.475s-.027-.33-.082-.47c-.055-.14-.128-.262-.221-.363-.093-.101-.202-.18-.328-.234-.126-.054-.263-.081-.41-.081-.153 0-.293.03-.421.089-.129.06-.24.14-.336.244-.095.104-.17.226-.224.367-.055.14-.083.29-.083.448zm-.777.007c0-.296.047-.557.143-.785.095-.227.224-.418.388-.574.164-.155.358-.274.582-.355.223-.082.466-.122.727-.122.257 0 .496.04.717.122.221.081.413.2.575.355.161.156.289.347.381.574.093.228.142.489.147.785 0 .282-.046.537-.136.767-.09.23-.218.425-.382.585-.164.16-.357.284-.581.37-.224.087-.464.13-.72.13-.253 0-.49-.04-.714-.122-.224-.082-.418-.2-.585-.356-.166-.155-.298-.348-.396-.577-.097-.23-.146-.495-.146-.797z" transform="translate(-1 -1) translate(1 1)"/>
            <path stroke="#27BCBD" stroke-width=".25" d="M14.648 16.361v-5.103h.77v1.8h.97v.674h-.97v2.215c0 .157-.021.266-.064.325-.043.06-.133.09-.271.09h-.435zm-2.783 1.933c-.176 0-.32-.054-.431-.163-.112-.108-.168-.249-.168-.422V16h.792v1.473c0 .094.031.14.093.14h3.445v.379c0 .202-.107.303-.32.303h-3.41zm-1.006-4.999c0 .197.031.37.093.515.062.146.143.266.243.363.1.096.214.169.342.218.129.05.257.074.385.074.157 0 .3-.028.428-.085.129-.057.238-.137.329-.24.09-.104.16-.228.21-.37.05-.144.075-.302.075-.475s-.027-.33-.082-.47c-.055-.14-.128-.262-.221-.363-.093-.101-.202-.18-.328-.234-.126-.054-.263-.081-.41-.081-.153 0-.293.03-.421.089-.129.06-.24.14-.336.244-.095.104-.17.226-.224.367-.055.14-.083.29-.083.448zm-.777.007c0-.296.047-.557.143-.785.095-.227.224-.418.388-.574.164-.155.358-.274.582-.355.223-.082.466-.122.727-.122.257 0 .496.04.717.122.221.081.413.2.575.355.161.156.289.347.381.574.093.228.142.489.147.785 0 .282-.046.537-.136.767-.09.23-.218.425-.382.585-.164.16-.357.284-.581.37-.224.087-.464.13-.72.13-.253 0-.49-.04-.714-.122-.224-.082-.418-.2-.585-.356-.166-.155-.298-.348-.396-.577-.097-.23-.146-.495-.146-.797z" transform="translate(-1 -1) translate(1 1)"/>
            <path fill="#27BCBD" d="M21.425 16.361v-2.814h-1.47v-.689h1.47v-1.6h.784v4.659c0 .158-.022.271-.067.34-.046.07-.137.104-.275.104h-.442zm-2.904 1.94c-.18 0-.327-.054-.438-.162-.112-.109-.168-.25-.168-.423v-1.725h.792v1.489c0 .094.03.14.092.14h3.589v.378c0 .099-.024.174-.072.226-.047.052-.128.078-.242.078H18.52zm-1.826-6.82h3.503v.303c0 .128-.036.22-.107.274-.072.054-.155.082-.25.082h-1.013v1c0 .197.057.382.171.555.114.173.257.332.428.478.171.145.356.275.553.389.197.113.38.207.546.281l-.492.533c-.138-.064-.281-.14-.428-.23-.148-.088-.292-.185-.432-.288-.14-.104-.274-.214-.4-.33-.126-.116-.234-.233-.324-.352-.095.129-.21.262-.343.4-.133.139-.277.27-.431.393-.155.123-.312.236-.471.337-.16.101-.313.181-.46.24l-.492-.518c.256-.113.494-.245.713-.396.219-.15.407-.309.564-.474.157-.166.28-.336.37-.511.09-.175.136-.345.136-.508v-1h-1.341v-.659z" transform="translate(-1 -1) translate(1 1)"/>
            <path stroke="#27BCBD" stroke-width=".25" d="M21.425 16.361v-2.814h-1.47v-.689h1.47v-1.6h.784v4.659c0 .158-.022.271-.067.34-.046.07-.137.104-.275.104h-.442zm-2.904 1.94c-.18 0-.327-.054-.438-.162-.112-.109-.168-.25-.168-.423v-1.725h.792v1.489c0 .094.03.14.092.14h3.589v.378c0 .099-.024.174-.072.226-.047.052-.128.078-.242.078H18.52zm-1.826-6.82h3.503v.303c0 .128-.036.22-.107.274-.072.054-.155.082-.25.082h-1.013v1c0 .197.057.382.171.555.114.173.257.332.428.478.171.145.356.275.553.389.197.113.38.207.546.281l-.492.533c-.138-.064-.281-.14-.428-.23-.148-.088-.292-.185-.432-.288-.14-.104-.274-.214-.4-.33-.126-.116-.234-.233-.324-.352-.095.129-.21.262-.343.4-.133.139-.277.27-.431.393-.155.123-.312.236-.471.337-.16.101-.313.181-.46.24l-.492-.518c.256-.113.494-.245.713-.396.219-.15.407-.309.564-.474.157-.166.28-.336.37-.511.09-.175.136-.345.136-.508v-1h-1.341v-.659z" transform="translate(-1 -1) translate(1 1)"/>
            <path fill="#27BCBD" d="M27.339 16.435v-5.177h.777v2.237h.97v.674h-.97v1.83c0 .29-.128.436-.385.436h-.392zm-2.847 1.86c-.176 0-.32-.055-.432-.164-.111-.108-.167-.249-.167-.422v-1.718h.77l.008 1.481c0 .094.03.141.092.141h3.546v.378c0 .098-.024.174-.072.226-.047.051-.128.077-.242.077h-3.503zm-1.455-6.037v-.674h2.996c.166 0 .289.05.367.148.079.1.118.218.118.356v.104c0 .143-.01.307-.032.492-.021.185-.054.371-.096.56-.043.187-.094.367-.154.54-.06.173-.127.318-.203.437l-.592-.193c.095-.266.17-.54.225-.822.054-.281.082-.563.082-.844 0-.04-.006-.067-.018-.082-.012-.014-.037-.022-.075-.022h-2.618zm-.435 2.489h1.084V13.19h.763v1.556h.62c.32 0 .632-.015.939-.045.307-.03.648-.091 1.024-.185v.385c0 .114-.025.194-.075.241-.05.047-.123.085-.218.115-.2.064-.5.108-.899.133-.4.025-.848.037-1.348.037h-1.89v-.681z" transform="translate(-1 -1) translate(1 1)"/>
            <path stroke="#27BCBD" stroke-width=".25" d="M27.339 16.435v-5.177h.777v2.237h.97v.674h-.97v1.83c0 .29-.128.436-.385.436h-.392zm-2.847 1.86c-.176 0-.32-.055-.432-.164-.111-.108-.167-.249-.167-.422v-1.718h.77l.008 1.481c0 .094.03.141.092.141h3.546v.378c0 .098-.024.174-.072.226-.047.051-.128.077-.242.077h-3.503zm-1.455-6.037v-.674h2.996c.166 0 .289.05.367.148.079.1.118.218.118.356v.104c0 .143-.01.307-.032.492-.021.185-.054.371-.096.56-.043.187-.094.367-.154.54-.06.173-.127.318-.203.437l-.592-.193c.095-.266.17-.54.225-.822.054-.281.082-.563.082-.844 0-.04-.006-.067-.018-.082-.012-.014-.037-.022-.075-.022h-2.618zm-.435 2.489h1.084V13.19h.763v1.556h.62c.32 0 .632-.015.939-.045.307-.03.648-.091 1.024-.185v.385c0 .114-.025.194-.075.241-.05.047-.123.085-.218.115-.2.064-.5.108-.899.133-.4.025-.848.037-1.348.037h-1.89v-.681z" transform="translate(-1 -1) translate(1 1)"/>
            <path fill="#27BCBD" d="M34.023 18.294v-7.036h.777v6.584c0 .164-.03.28-.092.349-.062.069-.155.103-.278.103h-.407zm-3.752-2.696c0 .05.011.084.035.104.024.02.079.03.164.03.49 0 .995-.019 1.516-.056.52-.037 1.012-.093 1.473-.166v.422c0 .083-.027.148-.082.192-.055.045-.113.072-.175.082-.2.03-.42.056-.66.081-.24.025-.49.046-.749.063-.259.018-.524.03-.795.037-.27.008-.535.011-.792.011-.252 0-.433-.04-.542-.122-.11-.082-.164-.248-.164-.5v-2.2h2.169c.057 0 .096-.012.117-.037.022-.024.033-.066.033-.126v-1.17H29.5v-.666h3.082v2.133c0 .158-.049.286-.146.385-.098.099-.244.148-.44.148h-1.725v1.355z" transform="translate(-1 -1) translate(1 1)"/>
            <path stroke="#27BCBD" stroke-width=".25" d="M34.023 18.294v-7.036h.777v6.584c0 .164-.03.28-.092.349-.062.069-.155.103-.278.103h-.407zm-3.752-2.696c0 .05.011.084.035.104.024.02.079.03.164.03.49 0 .995-.019 1.516-.056.52-.037 1.012-.093 1.473-.166v.422c0 .083-.027.148-.082.192-.055.045-.113.072-.175.082-.2.03-.42.056-.66.081-.24.025-.49.046-.749.063-.259.018-.524.03-.795.037-.27.008-.535.011-.792.011-.252 0-.433-.04-.542-.122-.11-.082-.164-.248-.164-.5v-2.2h2.169c.057 0 .096-.012.117-.037.022-.024.033-.066.033-.126v-1.17H29.5v-.666h3.082v2.133c0 .158-.049.286-.146.385-.098.099-.244.148-.44.148h-1.725v1.355z" transform="translate(-1 -1) translate(1 1)"/>
            <path fill="#27BCBD" d="M40.372 16.34v-5.082h.77v4.585c0 .158-.028.28-.085.366-.057.087-.157.13-.3.13h-.385zm-2.918 1.954c-.18 0-.323-.054-.428-.163-.104-.108-.157-.249-.157-.422v-1.666h.778v1.437c0 .093.028.14.085.14h3.582v.37c0 .1-.024.175-.072.227-.047.051-.126.077-.235.077h-3.553zm-1.056-4.999c0 .198.031.37.093.515.062.145.143.266.243.362.1.097.214.17.342.22.129.048.257.073.385.073.157 0 .3-.028.428-.085.129-.057.238-.137.328-.24.09-.104.161-.228.211-.371.05-.143.075-.301.075-.474s-.028-.33-.082-.47c-.055-.141-.129-.262-.221-.363-.093-.101-.202-.18-.328-.234-.127-.054-.263-.081-.41-.081-.153 0-.293.03-.422.089-.128.06-.24.14-.335.244-.095.104-.17.226-.225.367-.054.14-.082.29-.082.448zm-.777.007c0-.296.047-.557.142-.785.095-.227.225-.418.39-.574.163-.155.357-.274.58-.355.224-.082.467-.123.728-.123.257 0 .496.041.717.123.221.081.413.2.575.355.161.156.288.347.381.574.093.228.142.49.147.785 0 .282-.046.537-.136.767-.09.23-.218.424-.382.585-.164.16-.358.284-.581.37-.224.087-.464.13-.72.13-.253 0-.49-.04-.714-.122-.224-.082-.419-.2-.585-.356-.166-.155-.299-.348-.396-.577-.098-.23-.146-.495-.146-.797z" transform="translate(-1 -1) translate(1 1)"/>
            <path stroke="#27BCBD" stroke-width=".25" d="M40.372 16.34v-5.082h.77v4.585c0 .158-.028.28-.085.366-.057.087-.157.13-.3.13h-.385zm-2.918 1.954c-.18 0-.323-.054-.428-.163-.104-.108-.157-.249-.157-.422v-1.666h.778v1.437c0 .093.028.14.085.14h3.582v.37c0 .1-.024.175-.072.227-.047.051-.126.077-.235.077h-3.553zm-1.056-4.999c0 .198.031.37.093.515.062.145.143.266.243.362.1.097.214.17.342.22.129.048.257.073.385.073.157 0 .3-.028.428-.085.129-.057.238-.137.328-.24.09-.104.161-.228.211-.371.05-.143.075-.301.075-.474s-.028-.33-.082-.47c-.055-.141-.129-.262-.221-.363-.093-.101-.202-.18-.328-.234-.127-.054-.263-.081-.41-.081-.153 0-.293.03-.422.089-.128.06-.24.14-.335.244-.095.104-.17.226-.225.367-.054.14-.082.29-.082.448zm-.777.007c0-.296.047-.557.142-.785.095-.227.225-.418.39-.574.163-.155.357-.274.58-.355.224-.082.467-.123.728-.123.257 0 .496.041.717.123.221.081.413.2.575.355.161.156.288.347.381.574.093.228.142.49.147.785 0 .282-.046.537-.136.767-.09.23-.218.424-.382.585-.164.16-.358.284-.581.37-.224.087-.464.13-.72.13-.253 0-.49-.04-.714-.122-.224-.082-.419-.2-.585-.356-.166-.155-.299-.348-.396-.577-.098-.23-.146-.495-.146-.797z" transform="translate(-1 -1) translate(1 1)"/>
            <path fill="#27BCBD" d="M43.39 17.094c0 .114.042.213.128.297.085.084.2.153.346.207.145.054.313.096.503.126s.39.044.599.044c.2 0 .392-.013.578-.04.185-.028.35-.07.492-.126.143-.057.257-.127.342-.211.086-.084.129-.183.129-.297 0-.118-.043-.223-.129-.314-.085-.092-.198-.167-.338-.226-.14-.06-.304-.105-.489-.137-.185-.032-.378-.048-.578-.048-.214 0-.416.016-.606.048s-.358.078-.503.137c-.145.059-.26.134-.346.226-.086.091-.129.196-.129.314zm-.8 0c0-.241.07-.45.207-.625.138-.175.32-.32.546-.434.226-.113.48-.198.763-.255.283-.057.57-.085.86-.085.285 0 .567.028.845.085.279.057.528.142.75.255.22.114.399.26.534.437.136.178.204.385.204.622 0 .223-.064.418-.193.586-.128.167-.3.307-.517.418-.216.111-.465.195-.746.252-.28.057-.573.085-.877.085-.29 0-.577-.024-.86-.07-.283-.047-.537-.125-.763-.234-.226-.108-.408-.247-.546-.414-.138-.168-.206-.376-.206-.623zm2.847-5.125c.124.287.378.57.763.852.385.281.887.506 1.505.674l-.428.555c-.2-.054-.409-.13-.627-.23-.22-.098-.432-.211-.639-.34-.207-.128-.4-.267-.581-.415-.181-.148-.336-.298-.464-.451-.124.162-.277.32-.46.47-.183.15-.378.288-.585.41-.207.124-.42.234-.639.33-.218.097-.423.172-.613.226l-.435-.555c.623-.173 1.12-.393 1.494-.66.374-.266.636-.555.789-.866h-1.87v-.644h4.637v.289c0 .237-.109.355-.328.355h-1.52zm2.725 2.496v.311c0 .237-.11.356-.328.356h-6.107v-.667h6.435z" transform="translate(-1 -1) translate(1 1)"/>
            <path stroke="#27BCBD" stroke-width=".25" d="M43.39 17.094c0 .114.042.213.128.297.085.084.2.153.346.207.145.054.313.096.503.126s.39.044.599.044c.2 0 .392-.013.578-.04.185-.028.35-.07.492-.126.143-.057.257-.127.342-.211.086-.084.129-.183.129-.297 0-.118-.043-.223-.129-.314-.085-.092-.198-.167-.338-.226-.14-.06-.304-.105-.489-.137-.185-.032-.378-.048-.578-.048-.214 0-.416.016-.606.048s-.358.078-.503.137c-.145.059-.26.134-.346.226-.086.091-.129.196-.129.314zm-.8 0c0-.241.07-.45.207-.625.138-.175.32-.32.546-.434.226-.113.48-.198.763-.255.283-.057.57-.085.86-.085.285 0 .567.028.845.085.279.057.528.142.75.255.22.114.399.26.534.437.136.178.204.385.204.622 0 .223-.064.418-.193.586-.128.167-.3.307-.517.418-.216.111-.465.195-.746.252-.28.057-.573.085-.877.085-.29 0-.577-.024-.86-.07-.283-.047-.537-.125-.763-.234-.226-.108-.408-.247-.546-.414-.138-.168-.206-.376-.206-.623zm2.847-5.125c.124.287.378.57.763.852.385.281.887.506 1.505.674l-.428.555c-.2-.054-.409-.13-.627-.23-.22-.098-.432-.211-.639-.34-.207-.128-.4-.267-.581-.415-.181-.148-.336-.298-.464-.451-.124.162-.277.32-.46.47-.183.15-.378.288-.585.41-.207.124-.42.234-.639.33-.218.097-.423.172-.613.226l-.435-.555c.623-.173 1.12-.393 1.494-.66.374-.266.636-.555.789-.866h-1.87v-.644h4.637v.289c0 .237-.109.355-.328.355h-1.52zm2.725 2.496v.311c0 .237-.11.356-.328.356h-6.107v-.667h6.435z" transform="translate(-1 -1) translate(1 1)"/>
            <path fill="#27BCBD" d="M12.491 21.24L12.491 24.927 16.064 24.927 16.064 21.24 18.228 21.24 18.228 30.835 16.064 30.835 16.064 26.821 12.491 26.821 12.491 30.835 10.313 30.835 10.313 21.24zM23.936 26.75l-.598-2.036c-.17-.57-.342-1.282-.484-1.851h-.028c-.143.57-.285 1.295-.442 1.85l-.57 2.036h2.122zm-2.434 1.623l-.684 2.462h-2.25l2.934-9.595h2.847l2.975 9.595H24.99l-.74-2.462h-2.748zM34.441 30.565c-.398.2-1.295.413-2.462.413-3.317 0-5.026-2.064-5.026-4.798 0-3.274 2.335-5.096 5.24-5.096 1.124 0 1.978.227 2.362.427l-.44 1.722c-.442-.185-1.054-.356-1.823-.356-1.723 0-3.061 1.04-3.061 3.175 0 1.922 1.139 3.132 3.075 3.132.655 0 1.381-.142 1.808-.313l.327 1.694z" transform="translate(-1 -1) translate(1 1)"/>
            <path fill="#27BCBD" d="M41.63 30.565c-.399.2-1.296.413-2.463.413-3.317 0-5.025-2.064-5.025-4.798 0-3.274 2.334-5.096 5.239-5.096 1.124 0 1.978.227 2.363.427l-.441 1.722c-.442-.185-1.054-.356-1.823-.356-1.722 0-3.06 1.04-3.06 3.175 0 1.922 1.138 3.132 3.074 3.132.655 0 1.382-.142 1.809-.313l.327 1.694zM44.348 25.725c.185.042.413.056.726.056 1.153 0 1.865-.583 1.865-1.566 0-.882-.612-1.409-1.694-1.409-.441 0-.74.043-.897.085v2.834zm-2.15-4.357c.67-.113 1.61-.199 2.933-.199 1.338 0 2.292.256 2.933.769.612.484 1.025 1.28 1.025 2.22 0 .94-.313 1.737-.883 2.278-.74.698-1.836 1.011-3.118 1.011-.284 0-.54-.014-.74-.043v3.431h-2.15v-9.467z" transform="translate(-1 -1) translate(1 1)"/>
            <path fill="#FAAF3F" d="M48.924 29.522c.049.2.08.4.08.606 0 3.882-9.001 7.028-20.103 7.028-11.103 0-20.102-3.146-20.102-7.028 0-.205.031-.406.078-.605-1.42 1.046-2.22 2.222-2.22 3.465 0 4.39 9.959 7.95 22.244 7.95 12.284 0 22.244-3.56 22.244-7.95 0-1.243-.798-2.419-2.22-3.466" transform="translate(-1 -1) translate(1 1)"/>
            <g transform="translate(-1 -1) translate(1 1) translate(0 .029)">
                <mask id="prefix__b" fill="#fff">
                    <use xlink:href="#prefix__a"/>
                </mask>
                <path fill="#27BCBD" d="M28.901 2.2C43.757 2.2 55.8 14.245 55.8 29.1c0 5.291-1.529 10.224-4.167 14.385H6.17C3.532 39.325 2.003 34.39 2.003 29.1c0-14.856 12.043-26.9 26.898-26.9m0-2.002C12.94.198.001 13.138.001 29.1 0 45.06 12.94 58 28.9 58c15.962 0 28.901-12.94 28.901-28.9 0-15.963-12.939-28.902-28.9-28.902" mask="url(#prefix__b)"/>
            </g>
            <path fill="#FEFEFE" d="M15.694 48.492h.604v-2.425h-.604v2.425zm0 .64h-2.66v-.41h3.264v1.508h-.604v-1.098zm-1.682-1.628c-.162.296-.752.802-1.219.936l-.226-.43c.56-.277 1.17-.726 1.17-1.394v-.458h.605v.453c0 .645.555 1.122 1.165 1.408l-.221.42c-.482-.166-.959-.548-1.274-.935zM18.064 47.303h1.15v-.735h-1.15v.735zm-.453 2.521h2.055v-.64h-2.055v.64zm-.605-2.52h.453v-.736h-.453v-.41h3.265v.41h-.457v.735h.457v.411h-3.265v-.41zm1.932 1.47h1.333v1.46h-3.265v-1.46h1.333v-.34h-1.53v-.41h3.658v.41h-1.529v.34zM22.193 48.492c.821 0 .821-1.971 0-1.971-.816 0-.816 1.971 0 1.971zm0-2.392c1.622 0 1.642 2.798 0 2.798-1.637 0-1.617-2.798 0-2.798zm1.78 3.576c-.32.139-.566.143-.91.143h-2.148v-.405h2.306c.27 0 .472-.043.727-.13.025-.023.025-3.217.025-3.217h.6v4.163h-.6v-.554z" transform="translate(-1 -1) translate(1 1)"/>
            <path fill="#FEFEFE" d="M28.545 48.445h-.6v-2.378h.6v.506h.477v.453h-.477v.416h.477v.453h-.477v.55zm-2.404-.497c.82 0 .816-1.385 0-1.385-.836 0-.856 1.385 0 1.385zm1.804 1.14h-2.66v-.405h3.26v1.547h-.6V49.09zm-1.804-2.978c1.657 0 1.652 2.292 0 2.292-1.637 0-1.667-2.292 0-2.292zM30.452 47.303h1.15v-.735h-1.15v.735zM30 49.824h2.055v-.64H30v.64zm-.604-2.52h.452v-.736h-.452v-.41h3.264v.41h-.458v.735h.458v.411h-3.264v-.41zm1.931 1.47h1.333v1.46h-3.264v-1.46h1.332v-.34h-1.53v-.41h3.658v.41h-1.529v.34zM36.804 49.084h-.6v-3.017h.6v1.05h.477v.459h-.477v1.508zm-2.355-.955c.807 0 .787-1.566-.005-1.566-.791 0-.791 1.566.005 1.566zm-.752.783h.6v.907h2.556v.411h-3.156v-1.318zm.747-2.802c1.603 0 1.598 2.473.005 2.473-1.607 0-1.583-2.473-.005-2.473zM40.467 47.437h-.6v-.41h.6v-.96h.6v2.974h-.6v-1.604zM37.91 48.86h.551v.96h2.66v.41h-3.21v-1.37zm.9-1.155c-.207.257-.796.764-1.244.902l-.226-.43c.56-.3 1.17-.702 1.17-1.399v-.21h-.939v-.41h2.458v.41h-.914v.205c0 .645.605 1.146 1.16 1.409l-.216.42c-.462-.157-.979-.535-1.249-.897zM44.547 47.848h-.703v-.41h.703v-1.376h.6v4.168h-.6v-2.382zm-1.656 1.035c-.207.368-.733.798-1.116.974l-.236-.41c.688-.453 1.052-.912 1.052-1.752v-.946h-.802v-.41h.802v-.368h.6v.368h.806v.41h-.807v.95c0 .774.374 1.352 1.052 1.748l-.235.41c-.428-.186-.851-.6-1.116-.974z" transform="translate(-1 -1) translate(1 1)"/>
        </g>
    </g>
</svg>
