<?xml version="1.0" encoding="UTF-8"?>
<svg width="60px" height="60px" viewBox="0 0 60 60" version="1.1" xmlns="http://www.w3.org/2000/svg" xmlns:xlink="http://www.w3.org/1999/xlink">
    <!-- Generator: sketchtool 53.2 (72643) - https://sketchapp.com -->
    <title>7C1D579F-4EF3-486F-8836-37408C67C537</title>
    <desc>Created with sketchtool.</desc>
    <g id="쿠캣마켓-icon-정리" stroke="none" stroke-width="1" fill="none" fill-rule="evenodd">
        <g id="쿠캣마켓-에디터-icon_6060" transform="translate(-41.000000, -91.000000)">
            <g id="냉동보관" transform="translate(41.000000, 91.000000)">
                <g id="Group-26">
                    <polygon id="Fill-1" fill="#FFFFFF" points="0 60 60 60 60 0 0 0"></polygon>
                    <path d="M30.3108,24.2145 C29.4238,24.2145 28.7058,23.4955 28.7058,22.6095 L28.7058,1.6075 C28.7058,0.7195 29.4238,0.0015 30.3108,0.0015 C31.1988,0.0015 31.9158,0.7195 31.9158,1.6075 L31.9158,22.6095 C31.9158,23.4955 31.1988,24.2145 30.3108,24.2145" id="Fill-2" fill="#EB5500"></path>
                    <path d="M30.3108,12.3463 C29.8998,12.3463 29.4898,12.1903 29.1758,11.8763 L22.5858,5.2873 C21.9588,4.6603 21.9588,3.6453 22.5858,3.0173 C23.2138,2.3903 24.2298,2.3903 24.8578,3.0173 L30.3108,8.4703 L35.7648,3.0173 C36.3918,2.3903 37.4088,2.3903 38.0358,3.0173 C38.6628,3.6453 38.6628,4.6603 38.0358,5.2873 L31.4468,11.8763 C31.1328,12.1903 30.7218,12.3463 30.3108,12.3463" id="Fill-4" fill="#EB5500"></path>
                    <path d="M24.0208,27.7955 C23.7488,27.7955 23.4718,27.7265 23.2188,27.5795 L4.7638,16.9245 C3.9958,16.4815 3.7318,15.4985 4.1758,14.7315 C4.6198,13.9645 5.6008,13.6995 6.3698,14.1435 L24.8258,24.7985 C25.5928,25.2415 25.8568,26.2245 25.4138,26.9915 C25.1158,27.5075 24.5768,27.7955 24.0208,27.7955" id="Fill-6" fill="#EB5500"></path>
                    <path d="M4.4758,24.1198 C3.7668,24.1198 3.1188,23.6468 2.9258,22.9298 C2.6968,22.0728 3.2048,21.1918 4.0608,20.9628 L11.5098,18.9668 L9.5148,11.5168 C9.2858,10.6598 9.7928,9.7788 10.6498,9.5498 C11.5138,9.3198 12.3868,9.8308 12.6168,10.6848 L15.0288,19.6848 C15.2568,20.5428 14.7488,21.4238 13.8928,21.6518 L4.8928,24.0648 C4.7528,24.1018 4.6128,24.1198 4.4758,24.1198" id="Fill-8" fill="#EB5500"></path>
                    <path d="M5.2571,45.5329 C4.7031,45.5329 4.1651,45.2479 3.8661,44.7339 C3.4211,43.9669 3.6821,42.9839 4.4481,42.5389 L22.9561,31.7909 C23.7241,31.3469 24.7061,31.6059 25.1521,32.3739 C25.5971,33.1399 25.3361,34.1239 24.5691,34.5689 L6.0621,45.3159 C5.8081,45.4639 5.5301,45.5329 5.2571,45.5329" id="Fill-10" fill="#EB5500"></path>
                    <path d="M10.7551,49.9664 C10.6181,49.9664 10.4791,49.9484 10.3391,49.9114 C9.4831,49.6824 8.9741,48.8014 9.2031,47.9454 L11.1991,40.4954 L3.7501,38.4994 C2.8941,38.2704 2.3851,37.3894 2.6141,36.5324 C2.8441,35.6774 3.7191,35.1644 4.5811,35.3974 L13.5821,37.8094 C14.4391,38.0384 14.9461,38.9194 14.7171,39.7764 L12.3061,48.7764 C12.1131,49.4924 11.4641,49.9664 10.7551,49.9664" id="Fill-12" fill="#EB5500"></path>
                    <path d="M30.3508,59.9987 C29.4638,59.9987 28.7458,59.2797 28.7458,58.3937 L28.7458,37.4857 C28.7458,36.5997 29.4638,35.8807 30.3508,35.8807 C31.2388,35.8807 31.9568,36.5997 31.9568,37.4857 L31.9568,58.3937 C31.9568,59.2797 31.2388,59.9987 30.3508,59.9987" id="Fill-14" fill="#EB5500"></path>
                    <path d="M36.9407,57.4528 C36.5287,57.4528 36.1187,57.2968 35.8047,56.9828 L30.3507,51.5288 L24.8977,56.9828 C24.2707,57.6098 23.2537,57.6098 22.6277,56.9828 C21.9997,56.3548 21.9997,55.3398 22.6277,54.7118 L29.2157,48.1228 C29.8427,47.4958 30.8597,47.4958 31.4867,48.1228 L38.0757,54.7118 C38.7027,55.3398 38.7027,56.3548 38.0757,56.9828 C37.7617,57.2968 37.3517,57.4528 36.9407,57.4528" id="Fill-16" fill="#EB5500"></path>
                    <path d="M54.4319,46.0709 C54.1599,46.0709 53.8829,46.0019 53.6309,45.8559 L35.6939,35.4999 C34.9259,35.0559 34.6619,34.0739 35.1059,33.3059 C35.5489,32.5389 36.5329,32.2749 37.2989,32.7179 L55.2369,43.0749 C56.0039,43.5179 56.2679,44.4999 55.8249,45.2679 C55.5269,45.7829 54.9879,46.0709 54.4319,46.0709" id="Fill-18" fill="#EB5500"></path>
                    <path d="M48.9348,50.5045 C48.2258,50.5055 47.5768,50.0325 47.3838,49.3155 L44.9718,40.3135 C44.8618,39.9015 44.9188,39.4645 45.1318,39.0945 C45.3458,38.7255 45.6958,38.4565 46.1078,38.3465 L55.1088,35.9355 C55.9738,35.7025 56.8458,36.2155 57.0758,37.0705 C57.3048,37.9275 56.7968,38.8085 55.9398,39.0375 L48.4898,41.0325 L50.4868,48.4835 C50.7158,49.3395 50.2068,50.2205 49.3508,50.4495 C49.2118,50.4875 49.0718,50.5045 48.9348,50.5045" id="Fill-20" fill="#EB5500"></path>
                    <path d="M36.8069,28.0055 C36.2509,28.0055 35.7109,27.7175 35.4129,27.2005 C34.9709,26.4325 35.2349,25.4505 36.0039,25.0085 L53.9439,14.6815 C54.7129,14.2375 55.6939,14.5035 56.1359,15.2715 C56.5789,16.0405 56.3149,17.0215 55.5459,17.4645 L37.6059,27.7915 C37.3539,27.9375 37.0779,28.0055 36.8069,28.0055" id="Fill-22" fill="#EB5500"></path>
                    <path d="M55.8352,24.6569 C55.6982,24.6569 55.5582,24.6399 55.4182,24.6019 L46.4182,22.1909 C45.5622,21.9619 45.0532,21.0809 45.2822,20.2239 L47.6942,11.2229 C47.9232,10.3669 48.7972,9.8539 49.6612,10.0879 C50.5182,10.3169 51.0252,11.1979 50.7962,12.0539 L48.8012,19.5049 L56.2502,21.5009 C57.1062,21.7289 57.6142,22.6099 57.3852,23.4679 C57.1922,24.1839 56.5442,24.6569 55.8352,24.6569" id="Fill-24" fill="#EB5500"></path>
                </g>
            </g>
        </g>
    </g>
</svg>