<svg xmlns="http://www.w3.org/2000/svg" width="24" height="24" viewBox="0 0 24 24">
    <g fill="none" fill-rule="evenodd">
        <path fill="#FFF" fill-opacity="0" d="M0 0h24v24H0z"/>
        <g transform="translate(.5 .5)">
            <ellipse cx="17.5" cy="10" fill="#FC7E37" rx="5.5" ry="6"/>
            <path stroke="#FC7E37" stroke-linecap="round" stroke-width="1.3" d="M16.5 14c.667 1.1.667 2.409 0 3.923-.667 1.515-.667 2.874 0 4.077M8 13c-1.333 1.376-1.333 3.01 0 4.904C9.333 19.797 9.333 21.496 8 23"/>
            <path fill="#FC7E37" stroke="#FFF" d="M7.5 16.5c-4.318 0-8-3.87-8-8.5 0-4.914 3.178-8.5 8-8.5s8 3.586 8 8.5c0 4.63-3.682 8.5-8 8.5z"/>
            <path stroke="#FFF" stroke-linecap="round" d="M7.5 2.511c-1.649 0-3.108.79-4 2"/>
        </g>
    </g>
</svg>
