<?xml version="1.0" encoding="UTF-8"?>
<svg width="60px" height="60px" viewBox="0 0 60 60" version="1.1" xmlns="http://www.w3.org/2000/svg" xmlns:xlink="http://www.w3.org/1999/xlink">
    <!-- Generator: sketchtool 53.2 (72643) - https://sketchapp.com -->
    <title>DD863B9B-323E-454A-818C-9C38F9F190F5</title>
    <desc>Created with sketchtool.</desc>
    <g id="쿠캣마켓-icon-정리" stroke="none" stroke-width="1" fill="none" fill-rule="evenodd">
        <g id="쿠캣마켓-에디터-icon_6060" transform="translate(-124.000000, -1186.000000)">
            <g id="Group-11" transform="translate(124.000000, 1186.000000)">
                <polygon id="Fill-1" fill="#FFFFFF" points="0.001 60 60 60 60 0 0.001 0"></polygon>
                <g id="Group-10" transform="translate(4.000000, 0.000000)" fill="#EB5500">
                    <path d="M12.6577,29.8228 C6.1717,29.8228 0.8937,24.5468 0.8937,18.0588 L0.8937,1.5788 C0.8937,0.7168 1.5937,0.0168 2.4557,0.0168 C3.3187,0.0168 4.0167,0.7168 4.0167,1.5788 L4.0167,18.0588 C4.0167,22.8238 7.8927,26.6998 12.6577,26.6998 C17.4227,26.6998 21.2997,22.8238 21.2997,18.0588 L21.2997,1.5788 C21.2997,0.7168 21.9977,0.0168 22.8607,0.0168 C23.7227,0.0168 24.4227,0.7168 24.4227,1.5788 L24.4227,18.0588 C24.4227,24.5468 19.1437,29.8228 12.6577,29.8228" id="Fill-2"></path>
                    <path d="M12.6577,59.9996 C11.7957,59.9996 11.0957,59.3016 11.0957,58.4376 L11.0957,28.2616 C11.0957,27.3986 11.7957,26.6996 12.6577,26.6996 C13.5197,26.6996 14.2197,27.3986 14.2197,28.2616 L14.2197,58.4376 C14.2197,59.3016 13.5197,59.9996 12.6577,59.9996" id="Fill-4"></path>
                    <path d="M37.5024,34.608 L47.9824,35.01 L47.9824,14.921 C47.9824,10.998 46.8914,7.998 44.7384,6.004 C42.3904,3.831 39.2904,3.281 37.5024,3.156 L37.5024,34.608 Z M35.9404,60 C35.0774,60 34.3794,59.301 34.3794,58.438 L34.3794,36.118 L34.3794,36.105 L34.3794,1.579 C34.3794,0.763 35.0074,0.085 35.8204,0.021 C36.0864,0.003 42.3874,-0.43 46.8604,3.713 C49.6774,6.322 51.1064,10.092 51.1064,14.921 L51.1064,36.632 C51.1064,37.057 50.9334,37.463 50.6274,37.757 C50.3204,38.052 49.9154,38.213 49.4834,38.193 L37.5024,37.732 L37.5024,58.438 C37.5024,59.301 36.8034,60 35.9404,60 L35.9404,60 Z" id="Fill-6"></path>
                    <path d="M12.6577,23.2974 C11.7957,23.2974 11.0957,22.5984 11.0957,21.7354 L11.0957,1.5784 C11.0957,0.7164 11.7957,0.0174 12.6577,0.0174 C13.5197,0.0174 14.2197,0.7164 14.2197,1.5784 L14.2197,21.7354 C14.2197,22.5984 13.5197,23.2974 12.6577,23.2974" id="Fill-8"></path>
                </g>
            </g>
        </g>
    </g>
</svg>