<?xml version="1.0" encoding="UTF-8"?>
<svg width="60px" height="60px" viewBox="0 0 60 60" version="1.1" xmlns="http://www.w3.org/2000/svg" xmlns:xlink="http://www.w3.org/1999/xlink">
    <!-- Generator: sketchtool 53.2 (72643) - https://sketchapp.com -->
    <title>610CE6F1-4633-44D2-8C05-1D13269BF470</title>
    <desc>Created with sketchtool.</desc>
    <defs>
        <polygon id="path-1" points="0 0.339065582 22.6599048 0.339065582 22.6599048 22.9998 0 22.9998"></polygon>
    </defs>
    <g id="쿠캣마켓-icon-정리" stroke="none" stroke-width="1" fill="none" fill-rule="evenodd">
        <g id="쿠캣마켓-에디터-icon_6060" transform="translate(-294.000000, -690.000000)">
            <g id="Group-16" transform="translate(294.000000, 690.000000)">
                <polygon id="Fill-1" fill="#FFFFFF" points="0 60 60 60 60 0 0 0"></polygon>
                <g id="Group-15">
                    <path d="M9.3069,38.9246 L21.0759,50.6936 L55.5319,16.2376 C56.3699,15.3986 56.8309,14.2836 56.8309,13.0996 C56.8309,11.9146 56.3699,10.7996 55.5319,9.9616 L50.0379,4.4686 C48.3079,2.7386 45.4949,2.7386 43.7629,4.4686 L9.3069,38.9246 Z M21.0759,54.5186 C20.6689,54.5186 20.2639,54.3626 19.9549,54.0536 L5.9469,40.0446 C5.3279,39.4266 5.3279,38.4236 5.9469,37.8046 L41.5239,2.2286 C44.4889,-0.7374 49.3139,-0.7374 52.2789,2.2286 L57.7719,7.7216 C59.2079,9.1576 59.9999,11.0676 59.9999,13.0996 C59.9999,15.1306 59.2079,17.0396 57.7719,18.4776 L22.1959,54.0536 C21.8859,54.3626 21.4809,54.5186 21.0759,54.5186 L21.0759,54.5186 Z" id="Fill-2" fill="#EB5500"></path>
                    <path d="M54.764,20.8289 C54.358,20.8289 53.953,20.6749 53.644,20.3649 L39.635,6.3559 C39.016,5.7379 39.016,4.7349 39.635,4.1159 C40.254,3.4979 41.256,3.4979 41.875,4.1159 L55.884,18.1249 C56.502,18.7439 56.502,19.7459 55.884,20.3649 C55.575,20.6749 55.169,20.8289 54.764,20.8289" id="Fill-4" fill="#EB5500"></path>
                    <g id="Group-8" transform="translate(0.000000, 37.000000)">
                        <mask id="mask-2" fill="white">
                            <use xlink:href="#path-1"></use>
                        </mask>
                        <g id="Clip-7"></g>
                        <path d="M1.5843,22.9998 C1.1693,22.9998 0.7663,22.8378 0.4643,22.5358 C0.0593,22.1308 -0.0967,21.5388 0.0593,20.9868 L5.5413,1.4958 C5.7773,0.6528 6.6533,0.1598 7.4953,0.3998 C8.3373,0.6368 8.8283,1.5118 8.5913,2.3538 L3.8743,19.1258 L20.6463,14.4088 C21.4833,14.1688 22.3633,14.6618 22.6003,15.5048 C22.8373,16.3478 22.3463,17.2218 21.5043,17.4588 L2.0133,22.9408 C1.8713,22.9798 1.7283,22.9998 1.5843,22.9998" id="Fill-6" fill="#EB5500" mask="url(#mask-2)"></path>
                    </g>
                    <polygon id="Fill-9" fill="#EB5500" points="9.2991 56.2459 3.7541 50.7009 1.5841 58.4159"></polygon>
                    <path d="M15.595,41.3201 C15.189,41.3201 14.784,41.1651 14.475,40.8561 C13.856,40.2371 13.856,39.2341 14.475,38.6161 L40.446,12.6441 C41.065,12.0261 42.067,12.0261 42.686,12.6441 C43.305,13.2631 43.305,14.2661 42.686,14.8841 L16.715,40.8561 C16.406,41.1651 16,41.3201 15.595,41.3201" id="Fill-11" fill="#EB5500"></path>
                    <path d="M20.264,45.989 C19.859,45.989 19.453,45.835 19.144,45.525 C18.526,44.907 18.526,43.904 19.144,43.285 L45.116,17.314 C45.734,16.695 46.737,16.695 47.356,17.314 C47.974,17.933 47.974,18.935 47.356,19.554 L21.384,45.525 C21.076,45.835 20.67,45.989 20.264,45.989" id="Fill-13" fill="#EB5500"></path>
                </g>
            </g>
        </g>
    </g>
</svg>