<svg xmlns="http://www.w3.org/2000/svg" width="24" height="24" viewBox="0 0 24 24">
    <g fill="none" fill-rule="evenodd">
        <path fill="#FC7E37" d="M3 0h18v4.126L12 7 3 4.078z"/>
        <path fill="#FFF" d="M10 0h4v8.744l-2 1-2-1.067z"/>
        <circle cx="12" cy="14" r="10" fill="#FC7E37"/>
        <path fill="#FFF" d="M12 17.074l-3.224 1.459a.5.5 0 0 1-.681-.61l.951-2.917-2.273-2.466a.5.5 0 0 1 .368-.839h3.033l1.378-2.792a.5.5 0 0 1 .896 0l1.378 2.792h3.033a.5.5 0 0 1 .368.84l-2.273 2.465.951 2.916a.5.5 0 0 1-.681.61L12 17.075z"/>
    </g>
</svg>
