<svg xmlns="http://www.w3.org/2000/svg" width="24" height="24" viewBox="0 0 24 24">
    <g fill="none" fill-rule="evenodd">
        <path fill="#FC7E37" d="M12.25 22.11L9.986 23.52a1 1 0 0 1-1.41-.378L7.32 20.79l-2.665.087a1 1 0 0 1-1.032-1.032l.087-2.665-2.35-1.256a1 1 0 0 1-.379-1.41L2.39 12.25.981 9.986a1 1 0 0 1 .378-1.41L3.71 7.32l-.087-2.665a1 1 0 0 1 1.032-1.032l2.665.087 1.256-2.35A1 1 0 0 1 9.986.98L12.25 2.39 14.514.981a1 1 0 0 1 1.41.378L17.18 3.71l2.665-.087a1 1 0 0 1 1.032 1.032L20.79 7.32l2.35 1.256a1 1 0 0 1 .379 1.41L22.11 12.25l1.408 2.264a1 1 0 0 1-.378 1.41L20.79 17.18l.087 2.665a1 1 0 0 1-1.032 1.032l-2.665-.087-1.256 2.35a1 1 0 0 1-1.41.379L12.25 22.11z"/>
        <path fill="#FFF" fill-rule="nonzero" stroke="#FFF" stroke-width=".5" d="M16 12.333a2 2 0 1 1 0 4 2 2 0 0 1 0-4zm.488-4.876a.5.5 0 0 1 0 .707l-7.935 7.935a.5.5 0 0 1-.708-.707l7.936-7.935a.5.5 0 0 1 .707 0zM16 13.333a1 1 0 1 0 0 2 1 1 0 0 0 0-2zM8.333 7a2 2 0 1 1 0 4 2 2 0 0 1 0-4zm0 1a1 1 0 1 0 0 2 1 1 0 0 0 0-2z"/>
    </g>
</svg>
