<svg xmlns="http://www.w3.org/2000/svg" width="22" height="23" viewBox="0 0 22 23">
    <g fill="none" fill-rule="evenodd">
        <path fill="#FFF" fill-opacity="0" d="M0 0H22V22H0z" transform="translate(0 1)"/>
        <path stroke="#FFF" stroke-width="1.5" d="M11 .625c2.166 0 3.958 1.569 3.958 3.557 0 .176-.014.35-.042.523l-.103.629H7.187l-.103-.629c-.028-.172-.042-.347-.042-.523C7.042 2.194 8.834.625 11 .625z" transform="translate(0 1)"/>
        <path stroke="#FFF" stroke-width="1.5" d="M18.3 5.333H3.7c-.657 0-1.202.509-1.247 1.164L1.676 17.74c-.006.045-.01.09-.01.135 0 1.68 4.142 3.375 9.334 3.375 5.192 0 9.333-1.694 9.333-3.375 0-.041-.002-.082-.012-.166l-.774-11.212c-.045-.655-.59-1.164-1.247-1.164z" transform="translate(0 1)"/>
    </g>
</svg>
