<?xml version="1.0" encoding="UTF-8"?>
<svg width="60px" height="60px" viewBox="0 0 60 60" version="1.1" xmlns="http://www.w3.org/2000/svg" xmlns:xlink="http://www.w3.org/1999/xlink">
    <!-- Generator: sketchtool 53.2 (72643) - https://sketchapp.com -->
    <title>AD8BFE4D-4B18-4E9A-A5F0-E260A5249998</title>
    <desc>Created with sketchtool.</desc>
    <defs>
        <polygon id="path-1" points="0.519 0.168134211 47.8804286 0.168134211 47.8804286 30.1842105 0.519 30.1842105"></polygon>
        <polygon id="path-3" points="0 0 7 0 7 11 0 11"></polygon>
    </defs>
    <g id="쿠캣마켓-icon-정리" stroke="none" stroke-width="1" fill="none" fill-rule="evenodd">
        <g id="쿠캣마켓-에디터-icon_6060" transform="translate(-381.000000, -253.000000)">
            <g id="냄비" transform="translate(381.000000, 253.000000)">
                <polygon id="Fill-1" fill="#FFFFFF" points="0 59.999 60 59.999 60 0 0 0"></polygon>
                <g id="Group-21" transform="translate(1.000000, 1.000000)">
                    <g id="Group-3" transform="translate(5.000000, 27.000000)">
                        <mask id="mask-2" fill="white">
                            <use xlink:href="#path-1"></use>
                        </mask>
                        <g id="Clip-2"></g>
                        <path d="M3.519,3.02339737 L3.519,21.8045026 C3.519,24.8506605 6.123,27.3290289 9.32271429,27.3290289 L39.075,27.3290289 C42.2764286,27.3290289 44.8804286,24.8506605 44.8804286,21.8045026 L44.8804286,3.02339737 L3.519,3.02339737 Z M39.075,30.1842921 L9.32271429,30.1842921 C4.46785714,30.1842921 0.519,26.42595 0.519,21.8045026 L0.519,1.59576579 C0.519,0.806897368 1.19014286,0.168134211 2.019,0.168134211 L46.3804286,0.168134211 C47.2092857,0.168134211 47.8804286,0.806897368 47.8804286,1.59576579 L47.8804286,21.8045026 C47.8804286,26.42595 43.9298571,30.1842921 39.075,30.1842921 L39.075,30.1842921 Z" id="Fill-1" fill="#EB5500" mask="url(#mask-2)"></path>
                    </g>
                    <g id="Group-6" transform="translate(51.000000, 30.000000)">
                        <mask id="mask-4" fill="white">
                            <use xlink:href="#path-3"></use>
                        </mask>
                        <g id="Clip-5"></g>
                        <path d="M2.23105086,11 L1.2121512,11 C0.542351079,11 0,10.3744644 0,9.60193188 C0,8.82939938 0.542351079,8.20386375 1.2121512,8.20386375 L2.23105086,8.20386375 C3.52355037,8.20386375 4.57569761,6.99034062 4.57569761,5.49960055 C4.57569761,4.00886048 3.52355037,2.79613625 2.23105086,2.79613625 L1.2121512,2.79613625 C0.542351079,2.79613625 0,2.17060062 0,1.39806812 C0,0.62633452 0.542351079,0 1.2121512,0 L2.23105086,0 C4.86037997,0 7,2.46699107 7,5.49960055 C7,8.53221004 4.86037997,11 2.23105086,11" id="Fill-4" fill="#EB5500" mask="url(#mask-4)"></path>
                    </g>
                    <path d="M37.4218595,25 C36.5498242,25 35.843719,24.355909 35.843719,23.5604607 C35.843719,22.6333973 35.0167734,21.8790787 33.9995491,21.8790787 C32.9832266,21.8790787 32.156281,22.6333973 32.156281,23.5604607 C32.156281,24.355909 31.4501758,25 30.5781405,25 C29.7061051,25 29,24.355909 29,23.5604607 C29,21.0457911 31.2427631,19 33.9995491,19 C36.7572369,19 39,21.0457911 39,23.5604607 C39,24.355909 38.2938949,25 37.4218595,25" id="Fill-7" fill="#EB5500"></path>
                    <path d="M7.49318676,23 C6.81664931,23 6.20332369,22.5455229 6.04102304,21.8701077 C5.84967912,21.0804431 6.34597742,20.2874183 7.14893854,20.100083 L50.1586111,10.0411009 C50.9684059,9.85040536 51.7688044,10.3418455 51.9592941,11.13067 C52.1497838,11.9211746 51.6534855,12.7133593 50.8513786,12.9015347 L7.84085184,22.9596767 C7.72467875,22.987399 7.60850565,23 7.49318676,23" id="Fill-9" fill="#EB5500"></path>
                    <path d="M25.6361722,17 C24.9370721,17 24.3032919,16.5496441 24.1355785,15.8795212 L23.0781013,11.6839692 C22.9033262,10.9988622 23.0242564,10.2887817 23.4170589,9.68775224 C23.8098614,9.08589032 24.4268702,8.66467022 25.1542168,8.50150987 L31.5246785,7.07302431 C33.0305684,6.73255193 34.5408718,7.61578222 34.9001316,9.03261347 L35.9576088,13.2281655 C36.1553341,14.0106692 35.6424842,14.7965028 34.8127441,14.9821393 C33.9803559,15.1719381 33.1497332,14.6857868 32.9528906,13.9024506 L31.9607333,9.96995306 L26.1490222,11.2727386 L27.1402967,15.206901 C27.338022,15.9885723 26.825172,16.7744058 25.9945493,16.9600424 C25.8753845,16.9875132 25.755337,17 25.6361722,17" id="Fill-11" fill="#EB5500"></path>
                    <path d="M5.44918357,41 C2.44393864,41 0,38.53221 0,35.4996006 C0,32.4669911 2.44393864,30 5.44918357,30 L6.61454725,30 C7.38010886,30 8,30.6263345 8,31.3980681 C8,32.1706006 7.38010886,32.7961362 6.61454725,32.7961362 L5.44918357,32.7961362 C3.9718951,32.7961362 2.77090549,34.0088605 2.77090549,35.4996006 C2.77090549,36.9903406 3.9718951,38.2038638 5.44918357,38.2038638 L6.61454725,38.2038638 C7.38010886,38.2038638 8,38.8293994 8,39.6019319 C8,40.3744644 7.38010886,41 6.61454725,41 L5.44918357,41 Z" id="Fill-13" fill="#EB5500"></path>
                    <path d="M46.5,17.986065 C45.6646758,17.986065 44.9863481,18.6651815 44.9863481,19.4995734 C44.9863481,20.3348185 45.6646758,21.013935 46.5,21.013935 C47.3353242,21.013935 48.0136519,20.3348185 48.0136519,19.4995734 C48.0136519,18.6651815 47.3353242,17.986065 46.5,17.986065 M46.5,24 C44.0187713,24 42,21.98142 42,19.4995734 C42,17.01858 44.0187713,15 46.5,15 C48.9812287,15 51,17.01858 51,19.4995734 C51,21.98142 48.9812287,24 46.5,24" id="Fill-15" fill="#EB5500"></path>
                    <path d="M55,1.5 C55,2.32876712 54.3277886,3 53.5,3 C52.6712329,3 52,2.32876712 52,1.5 C52,0.671232877 52.6712329,0 53.5,0 C54.3277886,0 55,0.671232877 55,1.5" id="Fill-17" fill="#EB5500"></path>
                    <path d="M50,5.00041867 C50,6.10404019 49.1045026,7 47.9995812,7 C46.8946597,7 46,6.10404019 46,5.00041867 C46,3.89595981 46.8946597,3 47.9995812,3 C49.1045026,3 50,3.89595981 50,5.00041867" id="Fill-19" fill="#EB5500"></path>
                </g>
            </g>
        </g>
    </g>
</svg>