<?xml version="1.0" encoding="UTF-8"?>
<svg width="60px" height="60px" viewBox="0 0 60 60" version="1.1" xmlns="http://www.w3.org/2000/svg" xmlns:xlink="http://www.w3.org/1999/xlink">
    <!-- Generator: sketchtool 53.2 (72643) - https://sketchapp.com -->
    <title>D046CE36-0C5C-4E18-B2FD-D67D558C1412</title>
    <desc>Created with sketchtool.</desc>
    <defs>
        <polygon id="path-1" points="0 0.1412 60 0.1412 60 57.8592 0 57.8592"></polygon>
    </defs>
    <g id="쿠캣마켓-icon-정리" stroke="none" stroke-width="1" fill="none" fill-rule="evenodd">
        <g id="쿠캣마켓-에디터-icon_6060" transform="translate(-464.000000, -519.000000)">
            <g id="Group-8" transform="translate(464.000000, 519.000000)">
                <polygon id="Fill-1" fill="#FFFFFF" points="0 60 60 60 60 0.001 0 0.001"></polygon>
                <g id="Group-7" transform="translate(0.000000, 1.000000)">
                    <path d="M33.7943,4.9779 L39.0213,15.5669 C39.6373,16.8159 40.8283,17.6819 42.2073,17.8819 L53.8933,19.5809 C57.3633,20.0839 58.7493,24.3499 56.2383,26.7969 L47.7823,35.0399 C46.7843,36.0129 46.3293,37.4139 46.5653,38.7859 L48.5623,50.4249 C49.1543,53.8809 45.5253,56.5179 42.4213,54.8859 L31.9693,49.3909 C30.7363,48.7429 29.2643,48.7429 28.0303,49.3909 L17.5783,54.8859 C14.4743,56.5179 10.8463,53.8809 11.4393,50.4249 L13.4353,38.7859 C13.6703,37.4139 13.2153,36.0129 12.2183,35.0399 L3.7623,26.7969 C1.2503,24.3499 2.6363,20.0839 6.1073,19.5809 L17.7933,17.8819 C19.1713,17.6819 20.3623,16.8159 20.9793,15.5669 L26.2053,4.9779 C27.7573,1.8319 32.2423,1.8319 33.7943,4.9779" id="Fill-2" fill="#EB5500"></path>
                    <g id="Group-6">
                        <mask id="mask-2" fill="white">
                            <use xlink:href="#path-1"></use>
                        </mask>
                        <g id="Clip-5"></g>
                        <path d="M29.9994,46.4252 C31.0724,46.4252 32.1464,46.6822 33.1244,47.1962 L43.5744,52.6932 C44.4474,53.1522 45.1554,52.7502 45.4214,52.5582 C45.6874,52.3652 46.2844,51.8142 46.1184,50.8442 L44.1224,39.2042 C43.7494,37.0262 44.4714,34.8062 46.0534,33.2652 L54.5084,25.0242 C55.2114,24.3362 55.0534,23.5382 54.9514,23.2262 C54.8514,22.9142 54.5104,22.1742 53.5364,22.0312 L41.8504,20.3342 C39.6624,20.0162 37.7734,18.6442 36.7984,16.6622 L31.5724,6.0742 C31.1374,5.1932 30.3274,5.0972 29.9994,5.0982 C29.6724,5.0982 28.8634,5.1932 28.4284,6.0742 L23.2024,16.6632 C22.2234,18.6442 20.3354,20.0182 18.1494,20.3342 L6.4644,22.0312 C5.4904,22.1742 5.1494,22.9142 5.0494,23.2262 C4.9474,23.5382 4.7874,24.3372 5.4914,25.0242 L13.9484,33.2662 C15.5294,34.8062 16.2514,37.0262 15.8784,39.2042 L13.8814,50.8442 C13.7154,51.8142 14.3134,52.3652 14.5794,52.5602 C14.8454,52.7532 15.5564,53.1492 16.4254,52.6932 L26.8774,47.1962 C27.8554,46.6822 28.9284,46.4252 29.9994,46.4252 M44.3954,57.8592 C43.3294,57.8592 42.2594,57.6012 41.2684,57.0792 L30.8154,51.5842 C30.3054,51.3182 29.6964,51.3162 29.1864,51.5842 L18.7314,57.0792 C16.4564,58.2792 13.7484,58.0822 11.6664,56.5702 C9.5844,55.0582 8.5614,52.5432 8.9954,50.0062 L10.9924,38.3662 C11.0894,37.7982 10.9014,37.2182 10.4894,36.8172 L2.0304,28.5722 C0.1884,26.7762 -0.4616,24.1412 0.3334,21.6952 C1.1294,19.2472 3.2054,17.4962 5.7504,17.1272 L17.4364,15.4302 C18.0074,15.3472 18.5014,14.9872 18.7574,14.4682 L23.9824,3.8812 C25.1214,1.5732 27.4254,0.1412 29.9984,0.1412 L29.9994,0.1412 C32.5724,0.1412 34.8784,1.5722 36.0184,3.8812 L41.2434,14.4702 C41.4994,14.9882 41.9924,15.3472 42.5634,15.4302 L54.2504,17.1272 C56.7974,17.4962 58.8714,19.2472 59.6674,21.6952 C60.4614,24.1412 59.8114,26.7782 57.9684,28.5722 L49.5134,36.8162 C49.0994,37.2182 48.9114,37.7982 49.0084,38.3662 L51.0044,50.0062 C51.4394,52.5412 50.4174,55.0562 48.3354,56.5702 C47.1594,57.4242 45.7824,57.8592 44.3954,57.8592" id="Fill-4" fill="#EB5500" mask="url(#mask-2)"></path>
                    </g>
                </g>
            </g>
        </g>
    </g>
</svg>