<?xml version="1.0" encoding="UTF-8"?>
<svg width="60px" height="60px" viewBox="0 0 60 60" version="1.1" xmlns="http://www.w3.org/2000/svg" xmlns:xlink="http://www.w3.org/1999/xlink">
    <!-- Generator: sketchtool 53.2 (72643) - https://sketchapp.com -->
    <title>534A25AD-CF1A-4880-AF4D-4EEC3BE3D1E6</title>
    <desc>Created with sketchtool.</desc>
    <defs>
        <polygon id="path-1" points="0.720842266 0.220228571 44.8680417 0.220228571 44.8680417 40.3375571 0.720842266 40.3375571"></polygon>
        <polygon id="path-3" points="0 0.14025 52.8596089 0.14025 52.8596089 53.0357143 0 53.0357143"></polygon>
    </defs>
    <g id="쿠캣마켓-icon-정리" stroke="none" stroke-width="1" fill="none" fill-rule="evenodd">
        <g id="쿠캣마켓-에디터-icon_6060" transform="translate(-39.000000, -401.000000)">
            <g id="체크" transform="translate(39.000000, 401.000000)">
                <polygon id="Fill-1" fill="#FFFFFF" points="0 59.999 60 59.999 60 0 0 0"></polygon>
                <g id="Group-7" transform="translate(2.000000, 1.000000)">
                    <g id="Group-3" transform="translate(12.000000, 0.000000)">
                        <mask id="mask-2" fill="white">
                            <use xlink:href="#path-1"></use>
                        </mask>
                        <g id="Clip-2"></g>
                        <path d="M13.7572105,40.3375571 C13.7287895,40.3375571 13.7003684,40.3363857 13.6707632,40.3352143 C13.0099737,40.3094429 12.4024737,39.9720714 12.0341842,39.4285286 L1.07076316,23.2218143 C0.434842105,22.2799857 0.689447368,21.0066429 1.64155263,20.3775857 C2.59128947,19.7473571 3.87971053,20.0003857 4.51563158,20.9398714 L13.9040526,34.8177857 L41.1752368,0.991614286 C41.8905,0.104842857 43.1943158,-0.0380714286 44.0872105,0.667128571 C44.9824737,1.37232857 45.1293158,2.66324286 44.4164211,3.54767143 L15.3772105,39.5655857 C14.9828684,40.0552429 14.3860263,40.3375571 13.7572105,40.3375571" id="Fill-1" fill="#EB5500" mask="url(#mask-2)"></path>
                    </g>
                    <g id="Group-6" transform="translate(0.000000, 5.000000)">
                        <mask id="mask-4" fill="white">
                            <use xlink:href="#path-3"></use>
                        </mask>
                        <g id="Clip-5"></g>
                        <path d="M50.7984978,53.0357143 L2.06087556,53.0357143 C0.923142222,53.0357143 -0.000235555556,52.1128929 -0.000235555556,50.9732143 L-0.000235555556,2.20275 C-0.000235555556,1.06307143 0.923142222,0.14025 2.06087556,0.14025 L38.0101867,0.14025 C39.14792,0.14025 40.0712978,1.06307143 40.0712978,2.20275 C40.0712978,3.34242857 39.14792,4.26525 38.0101867,4.26525 L4.12198667,4.26525 L4.12198667,48.9107143 L48.7373867,48.9107143 L48.7373867,15.0762857 C48.7373867,13.9366071 49.6595867,13.0137857 50.7984978,13.0137857 C51.9374089,13.0137857 52.8596089,13.9366071 52.8596089,15.0762857 L52.8596089,50.9732143 C52.8596089,52.1128929 51.9374089,53.0357143 50.7984978,53.0357143" id="Fill-4" fill="#EB5500" mask="url(#mask-4)"></path>
                    </g>
                </g>
            </g>
        </g>
    </g>
</svg>