<?xml version="1.0" encoding="UTF-8"?>
<svg width="60px" height="60px" viewBox="0 0 60 60" version="1.1" xmlns="http://www.w3.org/2000/svg" xmlns:xlink="http://www.w3.org/1999/xlink">
    <!-- Generator: sketchtool 54 (76480) - https://sketchapp.com -->
    <title>05AB6FBE-CACD-4B54-B9B8-B90F0362447F</title>
    <desc>Created with sketchtool.</desc>
    <defs>
        <polygon id="path-1" points="0.8325 0.5245 22 0.5245 22 24.2685 0.8325 24.2685"></polygon>
        <polygon id="path-3" points="0 0.5248 9.6368 0.5248 9.6368 3.5978 0 3.5978"></polygon>
    </defs>
    <g id="쿠캣마켓-icon-정리" stroke="none" stroke-width="1" fill="none" fill-rule="evenodd">
        <g id="쿠캣마켓-에디터-icon_6060" transform="translate(-731.000000, -1024.000000)">
            <g id="Group-19-Copy" transform="translate(731.000000, 1032.000000)">
                <g id="Group-18">
                    <path d="M40.3694,31.2687 L1.5364,31.2687 C0.6874,31.2687 0.0004,30.5817 0.0004,29.7327 C0.0004,28.8827 0.6874,28.1957 1.5364,28.1957 L38.8324,28.1957 L38.8324,3.7067 L1.5364,3.7067 C0.6874,3.7067 0.0004,3.0197 0.0004,2.1707 C0.0004,1.3217 0.6874,0.6337 1.5364,0.6337 L40.3694,0.6337 C41.2184,0.6337 41.9064,1.3217 41.9064,2.1707 L41.9064,29.7327 C41.9064,30.5817 41.2184,31.2687 40.3694,31.2687" id="Fill-2" fill="#EB5500"></path>
                    <g id="Group-6" transform="translate(38.000000, 7.000000)">
                        <mask id="mask-2" fill="white">
                            <use xlink:href="#path-1"></use>
                        </mask>
                        <g id="Clip-5"></g>
                        <path d="M3.9065,21.1955 L18.9265,21.1955 L18.9265,10.2145 L12.1555,3.5975 L3.9065,3.5975 L3.9065,21.1955 Z M20.4635,24.2685 L2.3695,24.2685 C1.5205,24.2685 0.8325,23.5815 0.8325,22.7325 L0.8325,2.0615 C0.8325,1.2125 1.5205,0.5245 2.3695,0.5245 L12.7815,0.5245 C13.1825,0.5245 13.5685,0.6815 13.8545,0.9625 L21.5375,8.4665 C21.8335,8.7565 22.0005,9.1535 22.0005,9.5665 L22.0005,22.7325 C22.0005,23.5815 21.3115,24.2685 20.4635,24.2685 L20.4635,24.2685 Z" id="Fill-4" fill="#EB5500" mask="url(#mask-2)"></path>
                    </g>
                    <path d="M12.9915,31.2687 C11.6025,31.2687 10.4735,32.3987 10.4735,33.7867 C10.4735,35.1737 11.6025,36.3037 12.9915,36.3037 C14.3795,36.3037 15.5085,35.1737 15.5085,33.7867 C15.5085,32.3987 14.3795,31.2687 12.9915,31.2687 M12.9915,39.3767 C9.9085,39.3767 7.3995,36.8697 7.3995,33.7867 C7.3995,30.7037 9.9085,28.1957 12.9915,28.1957 C16.0745,28.1957 18.5825,30.7037 18.5825,33.7867 C18.5825,36.8697 16.0745,39.3767 12.9915,39.3767" id="Fill-7" fill="#EB5500"></path>
                    <path d="M47.9309,31.2687 C46.5429,31.2687 45.4129,32.3987 45.4129,33.7867 C45.4129,35.1737 46.5429,36.3037 47.9309,36.3037 C49.3179,36.3037 50.4479,35.1737 50.4479,33.7867 C50.4479,32.3987 49.3179,31.2687 47.9309,31.2687 M47.9309,39.3767 C44.8479,39.3767 42.3399,36.8697 42.3399,33.7867 C42.3399,30.7037 44.8479,28.1957 47.9309,28.1957 C51.0139,28.1957 53.5209,30.7037 53.5209,33.7867 C53.5209,36.8697 51.0139,39.3767 47.9309,39.3767" id="Fill-9" fill="#EB5500"></path>
                    <path d="M18.8987,24.3781 L1.5367,24.3781 C0.6877,24.3781 0.0007,23.6911 0.0007,22.8421 C0.0007,21.9921 0.6877,21.3051 1.5367,21.3051 L18.8987,21.3051 C19.7477,21.3051 20.4347,21.9921 20.4347,22.8421 C20.4347,23.6911 19.7477,24.3781 18.8987,24.3781" id="Fill-11" fill="#EB5500"></path>
                    <path d="M13.5002,17.4875 L1.5362,17.4875 C0.6872,17.4875 0.0002,16.8005 0.0002,15.9515 C0.0002,15.1015 0.6872,14.4145 1.5362,14.4145 L13.5002,14.4145 C14.3492,14.4145 15.0362,15.1015 15.0362,15.9515 C15.0362,16.8005 14.3492,17.4875 13.5002,17.4875" id="Fill-13" fill="#EB5500"></path>
                    <g id="Group-17" transform="translate(0.000000, 7.000000)">
                        <mask id="mask-4" fill="white">
                            <use xlink:href="#path-3"></use>
                        </mask>
                        <g id="Clip-16"></g>
                        <path d="M8.1008,3.5978 L1.5368,3.5978 C0.6878,3.5978 -0.0002,2.9108 -0.0002,2.0618 C-0.0002,1.2118 0.6878,0.5248 1.5368,0.5248 L8.1008,0.5248 C8.9498,0.5248 9.6368,1.2118 9.6368,2.0618 C9.6368,2.9108 8.9498,3.5978 8.1008,3.5978" id="Fill-15" fill="#EB5500" mask="url(#mask-4)"></path>
                    </g>
                </g>
            </g>
        </g>
    </g>
</svg>