<?xml version="1.0" encoding="UTF-8"?>
<svg width="15px" height="15px" viewBox="0 0 15 15" version="1.1" xmlns="http://www.w3.org/2000/svg" xmlns:xlink="http://www.w3.org/1999/xlink">
    <!-- Generator: sketchtool 53.2 (72643) - https://sketchapp.com -->
    <title>4006D9A2-4BB3-4B4E-AFDC-06688567ACFA</title>
    <desc>Created with sketchtool.</desc>
    <g id="____guide" stroke="none" stroke-width="1" fill="none" fill-rule="evenodd">
        <g id="guide_0" transform="translate(-655.000000, -512.000000)">
            <g id="ic_rating_4" transform="translate(655.000000, 512.000000)">
                <rect id="Rectangle-Copy-11" fill="#D8D8D8" opacity="0" x="0" y="0" width="15" height="15"></rect>
                <path d="M14.4920918,7.10806306 C14.9527898,6.65905076 15.1156807,6.00005084 14.9163164,5.38814764 C14.7180144,4.77624444 14.1988882,4.3392719 13.5625514,4.24684902 L10.6407844,3.82227035 C10.4980778,3.80137782 10.3748473,3.71143372 10.3107533,3.58253744 L9.00443909,0.934852114 C8.71973413,0.358005866 8.14324199,-3.55271368e-13 7.50017706,-3.55271368e-13 L7.49982294,-3.55271368e-13 C6.85675801,-3.55271368e-13 6.28026587,0.358005866 5.99556091,0.934852114 L4.68924672,3.58218333 C4.62515269,3.71143372 4.50192219,3.80137782 4.3592156,3.82227035 L1.43780274,4.24684902 C0.801111791,4.3392719 0.281985579,4.77624444 0.0836836156,5.38814764 C-0.11568068,6.00005084 0.0472102187,6.65905076 0.507908173,7.10806306 L2.62194875,9.16863293 C2.72534906,9.26955447 2.77209167,9.41473983 2.74801214,9.5567382 L2.24907024,12.4664654 C2.14000416,13.1003235 2.39567205,13.7288699 2.9162147,14.1074142 C3.21048065,14.3209429 3.55432209,14.4296548 3.9006423,14.4296548 C4.16728762,14.4296548 4.43534939,14.3652067 4.68287273,14.234894 L7.29585521,12.8609447 C7.35924102,12.8273042 7.43006315,12.810661 7.49982294,12.810661 C7.56993685,12.810661 7.64005076,12.8273042 7.70379068,12.8609447 L10.3171273,14.234894 C10.885829,14.5344716 11.5628885,14.4856043 12.0837853,14.1074142 C12.604328,13.7288699 12.8599958,13.1003235 12.7509298,12.4664654 L12.2519879,9.55709232 C12.2275542,9.41473983 12.2746509,9.26955447 12.3780512,9.16863293 L14.4920918,7.10806306 Z" id="ic_rating_3" fill="#FFB123"></path>
            </g>
        </g>
    </g>
</svg>