<?xml version="1.0" encoding="UTF-8"?>
<svg width="15px" height="15px" viewBox="0 0 15 15" version="1.1" xmlns="http://www.w3.org/2000/svg" xmlns:xlink="http://www.w3.org/1999/xlink">
    <!-- Generator: sketchtool 53.2 (72643) - https://sketchapp.com -->
    <title>4991E13C-9C85-4904-8F2B-4DD79363A4B4</title>
    <desc>Created with sketchtool.</desc>
    <g id="____guide" stroke="none" stroke-width="1" fill="none" fill-rule="evenodd">
        <g id="guide_0" transform="translate(-636.000000, -512.000000)" fill="#FFB123">
            <g id="ic_rating_3" transform="translate(636.000000, 512.000000)">
                <path d="M7.38819767,1.01803379 L7.38819767,0.0875581395 L7.38854651,0.0875581395 C8.02203488,0.0875581395 8.58994186,0.440232558 8.87040698,1.00848837 L10.1572674,3.61674419 C10.220407,3.74372093 10.3418023,3.83232558 10.4823837,3.85290698 L13.3606395,4.27116279 C13.9875,4.3622093 14.4988953,4.79267442 14.6942442,5.39546512 C14.8906395,5.99825581 14.7301744,6.64744186 14.2763372,7.08976744 L12.1937791,9.11965116 C12.0919186,9.21906977 12.0455233,9.36209302 12.069593,9.50232558 L12.5611047,12.3683721 C12.6685465,12.9927907 12.416686,13.6119767 11.9038953,13.9848837 C11.3907558,14.3574419 10.7237791,14.4055814 10.1635465,14.1104651 L7.58912791,12.7569767 C7.52598837,12.7238372 7.45726744,12.7074419 7.38819767,12.7074419 L7.38819767,12.3387436 L7.38812791,12.7072326 C7.31905814,12.7075814 7.24998837,12.7239767 7.18719767,12.7571163 L4.61312791,14.1106047 C4.3692907,14.2389767 4.10522093,14.3021163 3.84254651,14.3021163 C3.50138372,14.3021163 3.16266279,14.1953721 2.87277907,13.9846744 C2.35998837,13.6121163 2.10812791,12.9925814 2.21556977,12.3681628 L2.7070814,9.50211628 C2.73115116,9.36188372 2.68475581,9.21886047 2.58289535,9.1197907 L0.500337209,7.08990698 C0.0465,6.6475814 -0.113965116,5.99839535 0.0824302326,5.39525581 C0.27777907,4.79281395 0.789174419,4.362 1.41638372,4.27095349 L4.2942907,3.85269767 C4.43487209,3.83246512 4.55626744,3.74386047 4.61975581,3.61653488 L5.90626744,1.00862791 C6.18673256,0.440372093 6.75463953,0.0873488372 7.38812791,0.0873488372 L7.38812791,1.01804731 Z M4.47006977,5.06082558 L1.59181395,5.4790814 L4.47010465,5.06072093 Z M1.26832898,6.10503403 C1.26833207,6.10503983 1.26833517,6.10504562 1.26833826,6.10505142 C1.26833517,6.10504562 1.26833208,6.10503982 1.26832898,6.10503403 Z M1.34430502,6.20749595 C1.34699726,6.21024419 1.34974411,6.21298606 1.35254651,6.21572093 L2.60731395,7.43875137 L1.35251163,6.21547674 C1.34975544,6.2127925 1.34705298,6.21010141 1.34440336,6.20740405 Z M10.8553788,9.22386175 C10.9013427,8.85668538 11.0700351,8.51043044 11.3415698,8.24546512 L13.4241279,6.2155814 C13.5978488,6.04639535 13.5580814,5.84965116 13.533314,5.77290698 C13.5085465,5.69616279 13.4248256,5.51372093 13.1851744,5.47918605 L10.3065698,5.06093023 C10.2013075,5.04557096 10.0988372,5.02028641 10.0002933,4.98589741 L10.8553788,9.22386175 Z" id="Combined-Shape"></path>
            </g>
        </g>
    </g>
</svg>