<svg xmlns="http://www.w3.org/2000/svg" xmlns:xlink="http://www.w3.org/1999/xlink" width="145" height="130" viewBox="0 0 145 130">
    <defs>
        <path id="a" d="M.534.55h66.01v60.187H.535z"/>
        <path id="c" d="M0 .321h30.986v27.94H0z"/>
    </defs>
    <g fill="none" fill-rule="evenodd">
        <path fill="#E9E8E2" fill-opacity=".2" d="M126.84 101.143c-5.668 3.613-11.38 5.42-17.133 5.42-8.63 0-9.308 13.332-20.569 18.932-11.26 5.6-20.373 4.384-25.486 2.42-5.113-1.965-12.985-5.585-15.338-13.826-2.354-8.242-8.066-10.027-17.227-13.35 0 0 2.517.022 14.109.066 7.409 9.166 35.048 11.234 36.552.16 9.283.033 24.313.093 45.093.178z"/>
        <path fill="#F9F9F9" d="M17.032 33.036c8.444 0 15.289 6.35 15.289 14.183 0 4.254-2.02 8.067-5.217 10.667 0 0-1.346 4.06 3.586 6.075 0 0-6.304 2.009-9.81-3.011-1.229.295-2.518.453-3.848.453-8.443 0-15.288-6.35-15.288-14.184 0-7.833 6.845-14.183 15.288-14.183"/>
        <path fill="#E9E8E2" d="M20.737 60.275c.38 0 .742.183.965.503 1.632 2.335 3.96 2.95 5.807 3.005-1.972-2.008-1.934-4.513-1.49-5.85.07-.212.2-.4.374-.542 3.133-2.546 4.93-6.207 4.93-10.045 0-7.385-6.524-13.394-14.543-13.394-8.019 0-14.543 6.009-14.543 13.394 0 7.386 6.524 13.395 14.543 13.395a15.78 15.78 0 0 0 3.682-.434c.091-.021.183-.032.275-.032m7.087 5.746c-2.467 0-5.443-.76-7.593-3.355-1.131.22-2.289.332-3.45.332C7.526 62.998 0 55.98 0 47.356c0-8.624 7.527-15.641 16.78-15.641 9.252 0 16.78 7.017 16.78 15.641 0 4.392-1.983 8.575-5.454 11.538-.153.83-.232 3.118 3.062 4.463a1.168 1.168 0 0 1-.088 2.196c-.819.26-1.968.468-3.256.468M66.322 108.725c-7.694 0-21.228-1.872-25.408-14.412-4.404-13.214 4.807-22.061 6.7-23.7a1.333 1.333 0 1 1 1.746 2.015c-1.667 1.444-9.784 9.237-5.916 20.842 1.915 5.742 7.438 12.588 22.878 12.588 4.17 0 9.284-.332 11.843-2.923 1.242-1.256 1.832-2.985 1.804-5.286-.07-5.84-4.435-6.578-10.133-6.937-.395-.025-.776-.049-1.136-.077-.531-.04-1.051-.068-1.558-.096-3.833-.21-7.796-.428-10.305-5.845a1.334 1.334 0 0 1 2.42-1.12c1.835 3.961 4.3 4.097 8.03 4.302.527.029 1.065.059 1.615.1.349.026.718.05 1.102.074 4.685.295 12.526.789 12.632 9.567.036 3.009-.83 5.429-2.573 7.193-3.254 3.293-9.053 3.715-13.74 3.715M107.416 101.039c-.02 0-.04 0-.06-.002a1.334 1.334 0 0 1-1.273-1.39c.013-.298.34-7.33 2.12-10.756.825-1.59 2.577-3.65 4.606-6.035 3.098-3.644 6.953-8.179 8.743-12.53 2.736-6.658 3.83-16.136.922-20.474-1.091-1.628-2.665-2.42-4.81-2.42-4.625 0-6.381 4.114-8.864 10.826-1.77 4.785-3.776 10.208-7.9 13.687a1.334 1.334 0 0 1-1.72-2.038c3.586-3.026 5.383-7.88 7.118-12.574 2.287-6.18 4.65-12.568 11.365-12.568 3.018 0 5.447 1.245 7.027 3.603 3.531 5.27 2.29 15.768-.671 22.972-1.95 4.743-5.959 9.457-9.178 13.243-1.924 2.262-3.586 4.216-4.272 5.538-1.25 2.408-1.739 7.777-1.822 9.643a1.334 1.334 0 0 1-1.33 1.275"/>
        <path fill="#E9E8E2" d="M81.303 102.024a1.334 1.334 0 0 1 0-2.667h61.623a1.334 1.334 0 0 1 0 2.667H81.303zM14.456 102.024a1.334 1.334 0 0 1 0-2.667H46.28a1.334 1.334 0 0 1 0 2.667H14.456z"/>
        <g transform="translate(37.605 19.825)">
            <mask id="b" fill="#fff">
                <use xlink:href="#a"/>
            </mask>
            <path fill="#E9E8E2" d="M50.623 60.737a1.335 1.335 0 0 1-.324-2.628c4.26-1.068 7.516-3.078 9.956-6.145 2.88-3.622 4.027-8.148 3.505-13.835-.146-1.583-.385-3.211-.616-4.786-.551-3.753-1.12-7.633-.568-11.574.29-2.078.363-3.958.215-5.588a5.864 5.864 0 0 0-3.485-4.88c-2.08-.928-4.517-.702-6.351.59-.662.466-1.386 1.055-2.197 1.722-3.262 2.677-7.32 6.01-12.952 4.817-5.632-1.188-7.997-5.875-9.898-9.641-.47-.934-.893-1.763-1.314-2.466-1.153-1.917-3.278-3.106-5.55-3.106h-.022a5.87 5.87 0 0 0-5.16 3.055c-.794 1.431-1.487 3.18-2.061 5.197-1.088 3.829-3.179 7.148-5.2 10.359-.848 1.346-1.724 2.737-2.497 4.126-2.778 4.99-3.558 9.592-2.388 14.071 1.159 4.429 4.025 7.385 6.676 9.692 1.811 1.576 5.29 3.311 5.325 3.328a1.334 1.334 0 0 1-1.185 2.39c-.155-.077-3.82-1.904-5.89-3.706-2.786-2.424-6.157-5.869-7.506-11.03C-.199 35.597.69 30.199 3.774 24.657c.808-1.451 1.703-2.874 2.57-4.25 2.01-3.192 3.908-6.205 4.892-9.666.629-2.214 1.4-4.153 2.295-5.763C15.062 2.22 17.858.566 21.011.55h.031c3.205 0 6.205 1.683 7.838 4.4.47.783.916 1.658 1.41 2.638 1.813 3.593 3.688 7.308 8.067 8.233 4.377.923 7.597-1.716 10.708-4.27.852-.699 1.617-1.32 2.353-1.84 2.602-1.832 6.04-2.154 8.977-.844 2.879 1.289 4.767 3.932 5.053 7.072.166 1.835.089 3.92-.23 6.2-.5 3.562.017 7.086.565 10.816.236 1.61.48 3.274.632 4.93.58 6.316-.79 11.611-4.074 15.74-2.817 3.542-6.545 5.855-11.392 7.072-.11.027-.218.04-.326.04" mask="url(#b)"/>
        </g>
        <path fill="#E9E8E2" d="M83.447 55.102a2.1 2.1 0 1 1-4.11-.869 2.1 2.1 0 0 1 4.11.869M68.728 61.19a1.68 1.68 0 1 1-3.289-.697 1.68 1.68 0 0 1 3.29.696"/>
        <path fill="#E7E6E0" d="M76.922 62.17l8.994.306"/>
        <path fill="#E9E8E2" d="M85.916 63.364h-.03l-8.995-.307a.888.888 0 0 1-.858-.918.886.886 0 0 1 .919-.858l8.994.306a.889.889 0 0 1-.03 1.777"/>
        <path fill="#E7E6E0" d="M76.003 66.521l8.35 3.356"/>
        <path fill="#E9E8E2" d="M84.353 70.766a.885.885 0 0 1-.332-.064l-8.35-3.356a.889.889 0 1 1 .663-1.65l8.35 3.356a.89.89 0 0 1-.331 1.714"/>
        <path fill="#E7E6E0" d="M56.634 62.43l-8.995-.306"/>
        <path fill="#E9E8E2" d="M56.634 63.32h-.03l-8.995-.307a.888.888 0 0 1-.858-.918c.017-.492.444-.891.919-.86l8.994.307a.889.889 0 0 1-.03 1.778"/>
        <path fill="#E7E6E0" d="M57.553 58.079l-8.35-3.356"/>
        <path fill="#E9E8E2" d="M57.552 58.968a.885.885 0 0 1-.331-.064l-8.35-3.356a.889.889 0 1 1 .664-1.65l8.35 3.356a.89.89 0 0 1-.333 1.714M58.549 49.844a2.1 2.1 0 1 1-4.109-.867 2.1 2.1 0 0 1 4.109.867"/>
        <path fill="#E9E8E2" fill-rule="nonzero" d="M9.6 47c0-3.98 2.98-7.2 7.3-7.2s7.3 3.22 7.3 7.2c0 1.68-.54 3.24-1.48 4.46L25 54h-3.06l-.88-1c-1.16.76-2.56 1.2-4.16 1.2-4.32 0-7.3-3.22-7.3-7.2zm2.7 0c0 2.64 1.96 4.8 4.6 4.8.92 0 1.76-.26 2.46-.72l-3.04-3.44 1.7-1.48 2.88 3.24c.38-.7.6-1.52.6-2.4 0-2.64-1.96-4.8-4.6-4.8-2.64 0-4.6 2.16-4.6 4.8z"/>
        <g>
            <path fill="#FAFAFA" d="M110.217 13.402c0 3.454 1.868 6.55 4.822 8.661 0 0 1.244 3.297-3.314 4.933 0 0 5.826 1.632 9.066-2.445 1.136.24 2.328.37 3.557.37 7.804 0 14.13-5.158 14.13-11.52 0-6.36-6.326-11.517-14.13-11.517-7.805 0-14.13 5.156-14.13 11.518z"/>
            <g transform="translate(109.275)">
                <mask id="d" fill="#fff">
                    <use xlink:href="#c"/>
                </mask>
                <path fill="#E9E8E2" d="M2.64 13.091c0 2.901 1.567 5.68 4.3 7.623.208.149.367.353.455.587.013.032.84 2.315-.778 4.365 1.45-.167 3.075-.733 4.262-2.22.311-.39.828-.573 1.328-.467 1.067.225 2.173.34 3.286.34 7.087 0 12.854-4.59 12.854-10.228 0-5.639-5.767-10.226-12.854-10.226C8.406 2.865 2.64 7.452 2.64 13.09zm-.175 14.794a1.28 1.28 0 0 1-.952-1.175 1.273 1.273 0 0 1 .86-1.24c2.558-.914 2.707-2.323 2.61-2.994C1.81 20.06 0 16.666 0 13.09 0 6.05 6.95.321 15.493.321s15.493 5.729 15.493 12.77c0 7.042-6.95 12.77-15.493 12.77-1.031 0-2.058-.083-3.062-.25-2.08 2.15-4.786 2.65-6.856 2.65-1.715 0-2.992-.344-3.11-.376z" mask="url(#d)"/>
            </g>
            <path fill="#E7E5DF" d="M124.621 16.38c.808 0 1.451.533 1.451 1.238s-.643 1.223-1.45 1.223c-.808 0-1.435-.518-1.435-1.223 0-.705.627-1.238 1.434-1.238zm-3.1-5.772c.297-1.137 1.468-2.13 3.265-2.13 1.863 0 3.33 1.109 3.33 2.59 0 2.117-2.638 2.534-2.638 3.398 0 .244.131.388.28.518l-1.664 1.008c-.182-.188-.759-.763-.759-1.57 0-1.856 2.637-2.187 2.637-3.324 0-.533-.477-.893-1.186-.893-.726 0-1.138.46-1.186.879l-2.078-.476z"/>
        </g>
    </g>
</svg>
