<svg xmlns="http://www.w3.org/2000/svg" xmlns:xlink="http://www.w3.org/1999/xlink" width="113" height="91" viewBox="0 0 113 91">
    <defs>
        <path id="a" d="M.884 11h76v84h-76z"/>
        <mask id="b" width="76" height="84" x="0" y="0" fill="#fff">
            <use xlink:href="#a"/>
        </mask>
    </defs>
    <g fill="none" fill-rule="evenodd" transform="translate(0 -11)">
        <path fill="#FBFAF9" d="M84.884 18h-76v84h76V18z"/>
        <use fill="#FFF" stroke="#E9E8E2" stroke-dasharray="4,4" stroke-linejoin="round" stroke-width="5" mask="url(#b)" transform="matrix(-1 0 0 1 77.768 0)" xlink:href="#a"/>
        <path stroke="#E9E8E1" stroke-linecap="round" stroke-width="2.5" d="M21.654 47c-3.416 2.393-17.806 12.53.299 14.794 7.206.902 6.67-10.825 5.468-10.512-7.732 2.018-7.99 11.547.68 12.79 6.446.925 13.594-11.18 7.016-15.568-2.732-1.823-10.645 13.863 7.742 11.434 3.803-.543 6.85-2.002 9.141-4.377"/>
        <g stroke="#E9E8E2" stroke-width="2.5">
            <path fill="#FFF" stroke-linejoin="round" d="M105.85 17.92l4.994 8.676a3.254 3.254 0 0 1-1.195 4.437l-48.836 28.15-12.998.876a2.25 2.25 0 0 1-2.099-3.372l6.82-11.792.29-.168 48.583-28.004a3.248 3.248 0 0 1 4.44 1.191l.001.005z"/>
            <path d="M100.263 27.458L58.437 51.336M61.278 57.8l-7.426-12.735M103.45 33.624l-7.427-12.735"/>
        </g>
    </g>
</svg>
