<?xml version="1.0" encoding="UTF-8"?>
<svg width="60px" height="56px" viewBox="0 0 60 56" version="1.1" xmlns="http://www.w3.org/2000/svg" xmlns:xlink="http://www.w3.org/1999/xlink">
    <!-- Generator: sketchtool 52.5 (67469) - http://www.bohemiancoding.com/sketch -->
    <title>D4B9997E-F7F8-449F-9FE5-27D83C322E8D</title>
    <desc>Created with sketchtool.</desc>
    <defs>
        <polygon id="path-1" points="0.0001 0.0888400546 60 0.0888400546 60 55.9104 0.0001 55.9104"></polygon>
    </defs>
    <g id="쿠캣마켓-icon-정리" stroke="none" stroke-width="1" fill="none" fill-rule="evenodd">
        <g id="쿠캣마켓-에디터-icon-정리-60x60" transform="translate(-124.000000, -521.000000)">
            <g id="Group-10" transform="translate(124.000000, 519.000000)">
                <polygon id="Fill-1" fill-opacity="0" fill="#FFFFFF" points="0 60 60 60 60 0.001 0 0.001"></polygon>
                <g id="Group-9" transform="translate(0.000000, 2.000000)">
                    <g id="Group-4">
                        <mask id="mask-2" fill="white">
                            <use xlink:href="#path-1"></use>
                        </mask>
                        <g id="Clip-3"></g>
                        <path d="M11.8391,3.2474 C11.5191,3.2474 11.1971,3.2824 10.8781,3.3534 C9.3861,3.6894 8.2651,4.7734 7.8041,6.3284 C7.3591,7.8304 7.0651,9.6274 6.9301,11.6714 C6.7191,14.8824 6.0771,18.1964 4.9691,21.8054 C4.1431,24.4934 3.1571,28.6644 3.1571,33.2564 C3.1571,44.7354 14.1951,52.7524 30.0001,52.7524 C45.8051,52.7524 56.8421,44.7354 56.8421,33.2564 C56.8421,28.6614 55.8581,24.4924 55.0321,21.8054 C53.9241,18.1964 53.2811,14.8824 53.0701,11.6704 C52.9361,9.6274 52.6421,7.8304 52.1961,6.3284 C51.7351,4.7734 50.6151,3.6894 49.1221,3.3534 C47.5561,3.0044 45.9051,3.5374 44.8181,4.7514 C44.3141,5.3164 43.7621,6.0114 43.1791,6.7464 C40.3321,10.3324 36.4341,15.2444 30.0001,15.2444 C23.3481,15.2444 19.6161,10.4064 16.8921,6.8734 C16.2861,6.0884 15.7141,5.3464 15.1831,4.7514 C14.3171,3.7844 13.0931,3.2474 11.8391,3.2474 M30.0001,55.9104 C12.3361,55.9104 0.0001,46.5954 0.0001,33.2564 C0.0001,28.2714 1.0601,23.7734 1.9491,20.8774 C2.9851,17.5064 3.5841,14.4274 3.7791,11.4644 C3.9291,9.1854 4.2651,7.1574 4.7771,5.4314 C5.5601,2.7854 7.5831,0.8574 10.1871,0.2724 C12.8691,-0.3316 15.6871,0.5794 17.5351,2.6454 C18.1451,3.3264 18.7511,4.1124 19.3921,4.9444 C21.9741,8.2934 24.9001,12.0874 30.0001,12.0874 C34.9081,12.0874 38.1231,8.0374 40.7051,4.7834 C41.3181,4.0114 41.8981,3.2804 42.4661,2.6454 C44.3141,0.5794 47.1291,-0.3316 49.8151,0.2724 C52.4181,0.8574 54.4411,2.7854 55.2251,5.4314 C55.7361,7.1574 56.0711,9.1854 56.2221,11.4634 C56.4161,14.4274 57.0151,17.5064 58.0511,20.8774 C58.9401,23.7714 60.0001,28.2694 60.0001,33.2564 C60.0001,46.5954 47.6631,55.9104 30.0001,55.9104" id="Fill-2" fill="#EB5500" mask="url(#mask-2)"></path>
                    </g>
                    <path d="M29.345,41.9838 C27.881,41.9748 26.679,43.1628 26.671,44.6648 C26.662,46.1288 27.85,47.3298 29.314,47.3378 C30.816,47.3478 32.018,46.1608 32.026,44.6968 C32.034,43.1948 30.847,41.9928 29.345,41.9838" id="Fill-5" fill="#EB5500"></path>
                    <path d="M30.2747,20.4984 C24.8337,20.4674 22.1097,24.2234 22.1097,24.2234 C21.8507,24.5634 21.7617,25.0344 22.1027,25.3374 L23.5087,26.7174 C23.8507,27.0194 24.1937,27.0214 24.5387,26.7234 C25.4007,25.9994 26.7827,24.1644 29.8257,24.1834 C32.3107,24.1974 33.6727,25.7484 33.6627,27.5064 C33.6397,31.4474 27.4217,31.9694 27.3937,36.6414 L27.3827,38.4404 C27.3807,38.9114 27.7657,39.2564 28.1937,39.2594 L30.5077,39.2724 C31.0227,39.2764 31.4097,38.9774 31.4117,38.4214 L31.4207,36.8344 C31.4397,33.7914 38.0887,32.8464 38.1207,27.4464 C38.1457,23.3744 34.7327,20.5244 30.2747,20.4984" id="Fill-7" fill="#EB5500"></path>
                </g>
            </g>
        </g>
    </g>
</svg>