<?xml version="1.0" encoding="utf-8"?>
<!-- Generator: Adobe Illustrator 23.0.0, SVG Export Plug-In . SVG Version: 6.00 Build 0)  -->
<svg version="1.1" id="Layer_1" xmlns="http://www.w3.org/2000/svg" xmlns:xlink="http://www.w3.org/1999/xlink" x="0px" y="0px"
	 viewBox="0 0 108 82.9" style="enable-background:new 0 0 108 82.9;" xml:space="preserve">
<style type="text/css">
	.st0{fill:#9C0A1F;}
	.st1{opacity:0.5;enable-background:new    ;}
</style>
<g>
	<path class="st0" d="M41.4,82.8C18.6,82.8,0,64.3,0,41.4S18.6,0,41.4,0s41.4,18.6,41.4,41.4S64.3,82.8,41.4,82.8z M41.4,3
		C20.2,3,3,20.2,3,41.4s17.2,38.4,38.4,38.4s38.4-17.2,38.4-38.4S62.6,3,41.4,3z"/>
</g>
<g class="st1">
	<path class="st0" d="M81.3,82c-14.7,0-26.7-12-26.7-26.7s12-26.7,26.7-26.7s26.7,12,26.7,26.7S96,82,81.3,82z M81.3,31.6
		c-13.1,0-23.7,10.6-23.7,23.7S68.3,79,81.3,79S105,68.4,105,55.3S94.4,31.6,81.3,31.6z"/>
</g>
<g>
	<g>
		<path d="M24.9,32H13.4v-3.1h28V32H29.8v25.7h-4.9L24.9,32L24.9,32z"/>
		<path d="M45.6,29.3c2.2-0.4,5.5-0.6,8.9-0.6c4.9,0,8,0.6,10.4,2.1c2,1.1,3.2,2.9,3.2,5.1c0,2.8-2.4,5.2-6.4,6.3v0.1
			c3.6,0.7,7.8,2.9,7.8,7.2c0,2.5-1.3,4.4-3.2,5.7c-2.6,1.9-6.9,2.7-13.1,2.7c-3.4,0-5.9-0.2-7.6-0.3L45.6,29.3L45.6,29.3z
			 M50.5,41.1h4.5c5.1,0,8.1-2.1,8.1-4.9c0-3.3-3.3-4.7-8.3-4.7c-2.3,0-3.6,0.1-4.4,0.3L50.5,41.1L50.5,41.1z M50.5,54.8
			c1,0.1,2.4,0.2,4.1,0.2c5.1,0,9.7-1.4,9.7-5.6c0-3.9-4.4-5.6-9.8-5.6h-4.1V54.8z"/>
	</g>
</g>
</svg>
