<?xml version="1.0" encoding="utf-8"?>
<!-- Generator: Adobe Illustrator 23.0.0, SVG Export Plug-In . SVG Version: 6.00 Build 0)  -->
<svg version="1.1" id="Layer_1" xmlns="http://www.w3.org/2000/svg" xmlns:xlink="http://www.w3.org/1999/xlink" x="0px" y="0px"
	 viewBox="0 0 300 300" style="enable-background:new 0 0 300 300;" xml:space="preserve">
<style type="text/css">
	.st0{fill:#DEB99B;}
	.st1{fill:#231815;stroke:#231815;stroke-width:7;}
	.st2{fill:#FFFFFF;}
	.st3{fill:#FFD7B7;}
	.st4{fill:#FFF2E8;}
</style>
<path class="st0" d="M188.33,229.63l-11.74-7.46l-19.13-23.36c0,0,6.27-5.63,11.77-0.96c5.5,4.66,24.31,17.89,24.31,17.89
	L188.33,229.63z"/>
<path class="st1" d="M173.01,178.26h-41.76c-4.18,0-7.57-3.39-7.57-7.57V75.17c0-4.18,3.39-7.57,7.57-7.57h41.76
	c4.18,0,7.57,3.39,7.57,7.57v95.52C180.58,174.87,177.19,178.26,173.01,178.26z"/>
<rect x="127.16" y="75" class="st2" width="49.94" height="92.13"/>
<path class="st2" d="M160.33,69.13h-16.4c-0.64,0-1.16-0.52-1.16-1.16l0,0c0-0.64,0.52-1.16,1.16-1.16h16.4
	c0.64,0,1.16,0.52,1.16,1.16l0,0C161.49,68.61,160.97,69.13,160.33,69.13z"/>
<circle class="st2" cx="152.13" cy="175.23" r="3.23"/>
<path class="st3" d="M195.44,242.87l-4.39-11.35c0,0-8.77-5.68-10.58-10.06c-1.81-4.39-29.16-65.55-29.16-65.55s-5.42-7.48,0-11.61
	c5.42-4.13,10.06,1.29,11.1,4.65c0.65,2.12,7.7,17.33,12.79,28.24c2.97,6.35,5.27,11.24,5.27,11.24l-4.68-11.52
	c0,0,3.39-8.23,11.52-1.45l4.55,8.9l-4.35-9.48c0,0,3.77-7.26,11.42-2.32l0.29,0.53l4.26,7.7l-3.87-8.61c0,0,4.84-6.87,11.32,0
	c0,0,12.97,26.03,13.94,32.71c0.97,6.68,1.55,15.77-0.58,19.45l3.19,7.26L195.44,242.87z"/>
<path class="st0" d="M175.5,177.86c0,0,0.61-2.12,0.88-1.92c0.27,0.2,4.61,13.72,4.61,13.72L175.5,177.86z"/>
<path class="st0" d="M186.76,175.01c0,0,0.66,0.02,0.75-0.14c0.09-0.16,4.47,9.68,4.47,9.68L186.76,175.01z"/>
<path class="st0" d="M198.92,172.55c0,0,0.68-0.12,0.68-0.39c-0.01-0.27,4.01,8.9,4.01,8.9"/>
<path class="st3" d="M143.31,181.71l-9.68,7.87l-2.45,8l-31.23-9.94l5.68-16.65c0,0-2.32-2.06-2.32-6.32c0-4.26,8.52-39.1,8.52-39.1
	l1.55-10.19c0,0,10.71,1.94,9.42,10.58s-2.84,15.1-2.84,15.1l0.26,30.06c0,0-0.42,7.88,9.68,10.58H143.31z"/>
<path class="st3" d="M184.13,115.39v-15.19c0,0,2.52-2.66,6.19-1.35c3.68,1.31,4.74,6.07,3.29,8.09
	C192.17,108.95,184.13,115.39,184.13,115.39z"/>
<path class="st3" d="M188.04,117.46c0,0-2.03,0.15-2.61,0.48c-0.58,0.34-8.95,7.16-8.95,7.16s-2.81,2.32-1.31,6.68
	c1.5,4.35,7.74,3.1,7.74,3.1l10.06-8.27C192.98,126.61,195.98,118.96,188.04,117.46z"/>
<path class="st3" d="M186.5,136.33c0,0-2.03,0.15-2.61,0.48s-8.95,7.16-8.95,7.16s-2.81,2.32-1.31,6.68c1.5,4.35,7.74,3.1,7.74,3.1
	l10.06-8.27C191.43,145.48,194.43,137.83,186.5,136.33z"/>
<path class="st4" d="M181.81,125.33c1.12,0.7,2.4,1.92,2.84,3.94c0.22,1.03-0.19,2.1-1.02,2.75c-1.21,0.95-3.21,1.95-5.35,0.64
	c0,0-2.47-1.55-1.67-4.86c0.14-0.59,0.5-1.12,0.98-1.5l1-0.79C179.53,124.77,180.81,124.7,181.81,125.33z"/>
<path class="st4" d="M180.09,144.71c1.12,0.7,2.4,1.92,2.84,3.94c0.22,1.03-0.19,2.1-1.02,2.75c-1.21,0.95-3.21,1.95-5.35,0.64
	c0,0-2.47-1.55-1.67-4.86c0.14-0.59,0.5-1.12,0.98-1.5l1-0.79C177.81,144.15,179.09,144.08,180.09,144.71z"/>
<path class="st4" d="M159.73,150.25c-1.03,1.2-3.42,3.27-7.07,2.35c-0.41-0.11-0.75-0.4-0.95-0.78c-0.67-1.32-1.88-4.51,0.69-6.72
	c0,0,2.7-2.27,6.12,0.25c0.24,0.18,0.41,0.43,0.52,0.7l0.98,2.64C160.22,149.23,160.1,149.82,159.73,150.25z"/>
<path class="st4" d="M113.26,114.79c0,0,1.58,0.5,1.68,0.69s1.09,10.02-3.2,9.46L113.26,114.79z"/>
</svg>
