<?xml version="1.0" encoding="utf-8"?>
<!-- Generator: Adobe Illustrator 23.0.0, SVG Export Plug-In . SVG Version: 6.00 Build 0)  -->
<svg version="1.1" id="Layer_1" xmlns="http://www.w3.org/2000/svg" xmlns:xlink="http://www.w3.org/1999/xlink" x="0px" y="0px"
	 viewBox="0 0 300 300" style="enable-background:new 0 0 300 300;" xml:space="preserve">
<style type="text/css">
	.st0{fill:#49B648;}
</style>
<g>
	<g>
		<path class="st0" d="M69.51,80.48c1.8-0.23,3.63-0.07,5.44-0.11c34.22,0.01,68.44,0.02,102.66-0.01c1.05-0.05,2.18,0.13,2.9,0.97
			c1.38,1.37,0.89,3.45,0.98,5.18c-0.04,34.96,0.01,69.91-0.02,104.86c0.07,2-1.91,3.6-3.86,3.3c-35.7,0-71.41,0.02-107.12-0.01
			c-1.79,0.1-3.46-1.48-3.34-3.29c-0.01-35.9,0-71.8,0-107.7C67.02,82.21,68.09,80.85,69.51,80.48z M92.95,108.9
			c0.04,19.07,0.01,38.15,0.01,57.23c7.14,0.04,14.3,0.03,21.44,0.01c0.11-9.46-0.13-18.92,0.13-28.38
			c2.35,3.27,4.48,6.69,6.88,9.93c4,6.21,8.53,12.08,12.37,18.39c7.19,0.19,14.39-0.01,21.58,0.11c0.08-0.9,0.15-1.79,0.15-2.69
			c-0.11-18.21,0.09-36.41-0.1-54.62c-7.12-0.06-14.23,0.01-21.34-0.03c-0.05,9.51,0.06,19.03-0.06,28.53
			c-6.61-9.4-12.86-19.08-19.62-28.37C107.27,108.68,100.1,108.91,92.95,108.9z"/>
	</g>
</g>
<g>
	<g>
		<path class="st0" d="M69.51,80.48c1.8-0.23,3.63-0.07,5.44-0.11c34.22,0.01,68.44,0.02,102.66-0.01c1.05-0.05,2.18,0.13,2.9,0.97
			c1.38,1.37,0.89,3.45,0.98,5.18c-0.04,34.96,0.01,69.91-0.02,104.86c0.07,2-1.91,3.6-3.86,3.3c-35.7,0-71.41,0.02-107.12-0.01
			c-1.79,0.1-3.46-1.48-3.34-3.29c-0.01-35.9,0-71.8,0-107.7C67.02,82.21,68.09,80.85,69.51,80.48z M92.95,108.9
			c0.04,19.07,0.01,38.15,0.01,57.23c7.14,0.04,14.3,0.03,21.44,0.01c0.11-9.46-0.13-18.92,0.13-28.38
			c2.35,3.27,4.48,6.69,6.88,9.93c4,6.21,8.53,12.08,12.37,18.39c7.19,0.19,14.39-0.01,21.58,0.11c0.08-0.9,0.15-1.79,0.15-2.69
			c-0.11-18.21,0.09-36.41-0.1-54.62c-7.12-0.06-14.23,0.01-21.34-0.03c-0.05,9.51,0.06,19.03-0.06,28.53
			c-6.61-9.4-12.86-19.08-19.62-28.37C107.27,108.68,100.1,108.91,92.95,108.9z"/>
	</g>
</g>
</svg>
