<?xml version="1.0" encoding="utf-8"?>
<!-- Generator: Adobe Illustrator 23.0.0, SVG Export Plug-In . SVG Version: 6.00 Build 0)  -->
<svg version="1.1" id="Layer_1" xmlns="http://www.w3.org/2000/svg" xmlns:xlink="http://www.w3.org/1999/xlink" x="0px" y="0px"
	 viewBox="0 0 193 124" style="enable-background:new 0 0 193 124;" xml:space="preserve">
<style type="text/css">
	.st0{fill:#9C0A1F;}
	.st1{fill:#FFFFFF;}
</style>
<path class="st0" d="M154.22,98.1H31.39c-6.13,0-11.1-4.97-11.1-11.1V49.33c0-6.13,4.97-11.1,11.1-11.1h122.84
	c6.13,0,11.1,4.97,11.1,11.1V87C165.32,93.13,160.35,98.1,154.22,98.1z"/>
<g>
	<path class="st1" d="M81.87,71.48l-0.17,0.31l-0.31,0.34l-0.48,0.71l-0.36,0.87l-1.01-0.32l-0.55-0.19l-0.61-0.07h-0.34l-0.16-0.05
		l-0.98-0.12V72.9l-0.64-0.08l-0.56,0.03l-0.34-0.02l-0.48,0.07l-0.37-0.05l-0.11,0.02v0.07l-0.5-0.03l-0.66,0.09l-0.27-0.02
		l-0.22,0.05H72.3l-0.45,0.12l-0.67,0.17l-0.22,0.02l-0.06,0.05l-0.34,0.03l-0.22,0.12l-0.42,0.08l-0.19,0.05l-0.7,0.15l-0.28,0.19
		l-0.33,0.07L68.1,74.2l-0.61,0.1h-0.45l0.06-0.53l0.06-0.36l0.38-1.1h0.66l0.59,0.1l0.48-0.17l0.45-0.17l0.3-0.03l1.9-0.41
		l1.98-0.39l2.56-0.26l1.3-0.05l0.67,0.05l1.19-0.17h1.72l0.45,0.14L81.87,71.48z M81.1,68.6l-0.5,0.36l-1.25-0.1l-0.55-0.05h-0.55
		l-0.41,0.03v0.03h-0.73l-0.17-0.02h-0.02v0.02h-0.86l-0.34,0.05l-0.17,0.14h-0.73l-0.5,0.14l-0.36,0.05l-0.62,0.14l-1.59,0.54
		l-0.42,0.03l-0.41,0.17l-0.42,0.05l-0.75,0.24h-0.33l-0.33-0.14v-0.42l0.45-0.66l0.67-0.46h0.41l0.37-0.1l0.39-0.08l0.34-0.07h0.13
		l0.41-0.15l0.87-0.29L74,67.52l1.16-0.8l0.22-0.05l0.3-0.42l0.25-0.48l0.22-0.41l0.16-0.44l0.06-0.22l-0.13-0.08h-0.36l-0.13,0.03
		L75.4,64.8l-0.3,0.08l-0.53,0.29l-0.45,0.25l-0.53,0.44l-0.31,0.44l-0.23,0.54l-0.09,0.22l-0.03,0.32l-0.3,0.32H72.2l-0.31-0.14
		l-0.7-0.02v-0.43l0.55-0.56l0.44-0.85l0.08-0.1l0.41-0.56l0.33-0.39l0.64-0.32l0.67-0.31l-0.58,0.07h-1.45l-0.36-0.03L71.63,64
		l-0.45-0.17l-0.19-0.12l-0.48-0.39l-0.2-0.22l0.08-0.51l0.34-0.32l0.33-0.12l0.56,0.03l0.52-0.05h0.08l0.61-0.12l0.28-0.02
		l0.09-0.05l0.5-0.05l0.06-0.03l0.22-0.05l0.81-0.19l1.2-0.32h0.45l0.2-0.03l0.3,0.02l0.64-0.03v0.07h0.06l0.34,0.08l0.2,0.05
		l0.61,0.17l0.77,0.29l0.67,0.27l0.28,0.46l-0.06,0.46l-0.44,0.22l-0.39,0.12l-0.69,0.19l-0.47,0.05l0.19,0.05l0.62,0.24l0.53,0.29
		l0.05,0.42l-0.14,0.27l-0.27,0.53l-0.06,0.1l-0.17,0.27l-0.2,0.29l-0.5,0.7l-0.23,0.42l-0.33,0.36l0.23-0.05l0.8-0.1l0.28,0.02
		l0.28-0.02l0.34-0.07l0.95,0.05L81.1,68.6z"/>
	<path class="st1" d="M89.49,61.92l0.44,0.27l0.28,0.25l0.27,0.08v0.15l0.19,0.14l0.19,0.27l0.14,0.36l-0.09,0.51l-0.16,0.46
		l-0.3,0.17l-0.19,0.22l-0.19,0.44l-0.09,0.42l-0.05,0.46l-0.39,0.37L89.1,66.5l-0.66-0.02l-0.69,0.05l-0.62,0.07l-0.3,0.07
		l-0.19,0.07l-0.11,0.03l0.17,0.31l-0.23,0.75l0.08,0.05l0.34-0.02l0.19,0.07l0.34,0.02l1.11-0.03l0.17-0.03l0.44-0.14l0.81-0.34
		l0.41-0.22l0.59-0.24l0.28,0.71L91,68.13l-0.19,0.19l-0.3,0.17l-0.53,0.25l-0.31,0.07l-0.08,0.05l-0.33,0.19l-0.16,0.07l-0.17,0.1
		l-0.25,0.03l-0.08-0.02l-0.77,0.05l-0.22,0.08l-0.06,0.02h0.02l-0.39,0.07l-0.31,0.15l-0.19,0.02l-0.33,0.14l-0.37,0.15l-0.27,0.07
		l-0.58,0.22h-0.11l-0.31,0.05l-0.23-0.32l-0.44-0.63l-0.2-0.37l0.17-0.43l0.17-0.24l0.16-0.41l0.11-0.46l0.03-0.19l-0.22,0.07
		l-0.19,0.07l-0.31,0.05l-0.33-0.27l-0.03-0.37l0.08-0.44l0.27-0.73l0.28-0.24l0.25-0.02l0.25,0.02l0.25-0.05l0.3-0.03l0.73-0.29
		l1.26-0.46l0.36-0.08l0.12-0.17v-0.08l-0.19-0.05l-0.2-0.05l-0.62,0.03h-0.23l-0.2-0.07l-0.25-0.07l-0.61-0.22l-0.69-0.31
		l-0.34-0.2l-0.14-0.03l-0.22-0.03l-0.37-0.27l0.06-0.54l0.22-0.46l0.14-0.41l0.31-0.12l0.5,0.02l0.59,0.05l0.55-0.03l0.59,0.02
		l0.8,0.02l0.62,0.02l0.36,0.05l0.52,0.03l0.09,0.15l0.11,0.03l0.09,0.07L89.49,61.92z M96.48,72.26l-0.17,0.88l0.09,0.97
		l-0.47,0.53l-0.62,0.12l-0.45,0.1h0.02l-0.28,0.07v0.05h-0.2v0.08l-0.44,0.08l-0.44,0.22l-0.53,0.22l-0.3,0.17l-0.34,0.08
		l-0.33,0.19l-0.39,0.14l-1.01,0.05l-0.2-0.32l-0.23-0.2l-0.45-0.53l-0.17-0.19l-0.17-0.27l-0.33-0.32l-0.72-0.92l-0.55-0.46
		l-0.13-0.07l-0.44-0.37l-0.05-0.68l0.14-0.36l0.39-0.54l0.41-0.53l0.52-0.44l0.33-0.08l0.3-0.15l0.11-0.02l0.25-0.17h0.42
		l0.52,1.14l0.34,0.41l0.06,0.15l0.22,0.32l0.39,0.44L92,72.51l0.16,0.27l0.39,0.02l0.2-0.05l0.28-0.17l0.2-0.07l0.3-0.2l0.19-0.07
		l0.48-0.31l0.61-0.24l0.11-0.03l0.28-0.22l0.53-0.08l0.28,0.03l0.25,0.29L96.48,72.26z M96.42,61.36l-0.03,0.37l-0.02,0.73
		l-0.06,0.22v1.19l-0.02,0.73l-0.03,1.02v0.7l0.03,0.54l0.02,1.6l-0.16,0.71l-0.67,0.44l-0.72-0.07l-0.62,0.1l-1.28,0.97l-0.55-0.07
		l0.75-0.9l0.48-0.6l0.31-0.44l0.05-0.56v-1.41l0.02-0.61l0.03-0.08v-0.46l-0.14-0.03l-0.58,0.24l-0.05,0.95l0.03,0.66l-0.05,0.41
		l-0.13,0.39l-0.28,0.58l-0.27,0.36l-0.44,0.22l-0.39-0.12l-0.13-0.44v-0.58l0.03-0.41l0.08-0.66l-0.03-0.58v-0.87l0.03-0.7
		l-0.03-0.85v-1.12l0.03-0.37l-0.03-0.48l-0.09-0.19l-0.23-0.2l-0.05-0.42l0.19-0.36l0.44-0.29l0.61,0.39l0.27,0.15l0.06,0.07
		L93,61.33l0.14,0.2l0.08,0.32l-0.03,0.7v1.39l0.73-0.14l0.02-1.21v-0.48l-0.02-0.73l-0.06-0.1l-0.41-0.37l0.33-0.94l0.69-0.03v0.1
		h0.05l0.14,0.07l0.27,0.05l0.14,0.07h0.47l0.45,0.24l0.28,0.39L96.42,61.36z"/>
	<path class="st1" d="M108.39,70.92l-0.13,0.51l-0.48,0.12l-0.22,0.07l-0.47,0.32l-0.41,0.17l-0.59-0.02l-0.25-0.46l-0.27-0.58
		l-0.23-0.73l-0.19-0.71l-0.41-0.8l-0.3-0.44l-0.41,0.58l-0.61,0.82l-0.36,0.61l-0.36,0.58l-0.31,0.42l-0.2,0.48l-0.16,0.27
		l-0.16,0.32l-0.53,0.83l-0.27,0.17l-0.37,0.03l-0.14-0.03l-0.28-0.03l-0.16-0.15l-0.11-0.05l-0.11-0.15l-0.34-0.31l-0.19-0.37
		l-0.03-0.42l0.3-0.31l0.31-0.14l0.47-0.32l0.47-0.49l0.17-0.24l0.22-0.24l0.05-0.12l0.34-0.48l0.3-0.46l0.61-0.97l0.23-0.6
		l0.3-0.46l0.25-0.42l-0.53,0.14l-0.47,0.14l-0.61,0.29l-0.27,0.07l-0.34,0.03l-0.27-0.1l-0.48-0.49l-0.22-0.32L99.74,66l-0.28-0.65
		v-0.39l0.3-0.31h0.48l0.19,0.08l0.41,0.02l0.33-0.03l0.59-0.12l0.17-0.08l0.5-0.12l0.17-0.02l0.41-0.17l-0.19-0.1l-0.33-0.25
		l-0.28-0.15l-0.2-0.19l-0.34-0.22l-0.27-0.1l-0.48-0.32l-0.17-0.29l-0.03-0.48l0.06-0.24l0.14-0.39l0.3-0.49l0.75-0.24l0.41,0.14
		v0.07h0.03l0.56,0.14l0.39,0.15l0.62,0.29l0.7,0.22l0.87,0.48l0.75,0.59l0.19,0.31l0.27-0.12l0.52-0.02l0.41,0.12l0.25,0.54
		l-0.2,0.73l-0.13,0.71l-0.47,0.27l-0.47,0.17l-0.36,0.19l-0.22,0.1l-0.31,0.44l-0.13,0.29l-0.16,0.29l0.77,0.75l0.47,0.7l0.3,0.42
		l0.53,0.83l0.45,0.58l0.19,0.37L108.39,70.92z M114.09,67.7l-0.36,0.75l-0.33,0.29h-1.06l-0.17,0.03l-0.7,0.19l-0.05,0.43
		l0.05,0.59v0.68l0.06,0.42v1.55l-0.11,2.58l-0.19,0.19l-0.39,0.27l-0.2,0.05l-0.19,0.1l-0.69,0.34h-0.61l-0.3-0.03l-0.22-0.29
		l-0.16-0.36l-0.03-0.66l0.05-0.19l0.11-1.16l-0.02-0.9v-1.19l0.02-0.42l0.02-0.78V67.8l-0.02-0.22l-0.05-0.75l-0.02-0.24l0.02-0.37
		l0.02-0.88l0.11-1.24v-1.24l-0.03-0.37l-0.02-0.83l-0.06-0.39l-0.14-0.29l-0.05-0.29l0.16-0.39l0.31-0.37l0.31-0.02l0.16,0.07
		l0.2,0.08l0.28,0.1l0.75,0.46h0.13l0.39,0.27l0.28,0.14l0.27,0.32l0.12,0.36l-0.12,0.49l-0.03,0.48v0.83l-0.03,0.7l-0.02,0.99v1.67
		l0.52-0.22l0.25-0.14l0.66-0.08l0.67,0.48l0.38,0.41L114.09,67.7z"/>
	<path class="st1" d="M124.74,65.25l-0.03,0.58l-0.41,0.97l-0.75,1.33l-0.83,1.19l-0.55,0.53l-0.97,0.68l-0.25,0.12l-0.2,0.2h-0.2
		l-0.39,0.17l-0.55,0.1l-1-0.02l-0.2-0.1l-0.22-0.1l-0.59-0.68l-0.23-0.19l-0.39-0.53l-0.16-0.09l-0.08-0.2l-0.28-0.36l-0.39-0.66
		l-0.41-0.6l-0.27-0.7l0.05-0.65l0.34-0.77l0.72-1.39l0.25-0.19l0.22-0.27l0.31-0.22l0.55-0.63l0.31-0.29v-0.39l0.23-0.54l0.56-0.44
		l0.69,0.25l0.33,0.19l0.36,0.31l0.05,0.37v0.61l-0.22,0.2l-0.72,0.48l-0.28,0.24l-0.31,0.15l-0.23,0.24l-0.56,0.48l-0.33,0.34
		l-0.13,0.41l0.05,0.7l0.11,0.1l0.27,0.36l0.09,0.05l0.45,0.51l0.17,0.05l0.14,0.17l0.36,0.25h0.03l0.02-0.07h0.67l0.11-0.03
		l0.05-0.1l0.58-0.49l0.25-0.29l0.19-0.27l0.19-0.73v-0.87l-0.03-0.17l-0.2-0.39l-0.44-0.2l-0.13-0.36l0.02-0.44l0.3-0.63l0.41-0.2
		l0.62-0.05v0.12l0.11,0.02l0.95,0.03l0.34,0.41l0.12,0.27l0.22,0.34v0.08l0.14,0.19l0.2,0.31l0.34,0.46L124.74,65.25z M128.52,61.7
		l-0.13,0.49l-0.03,0.48v0.83l-0.03,0.7l-0.02,0.99v1.92l-0.02,0.65l-0.05,1l-0.06,0.63l0.05,0.59v0.68l0.06,0.42v1.55l-0.11,2.58
		L128,75.4l-0.39,0.27l-0.2,0.05l-0.19,0.1l-0.56,0.22l-0.03,0.02v0.05l-0.7,0.05l-0.3-0.03l-0.22-0.29l-0.16-0.36l-0.03-0.66
		l0.05-0.19l0.11-1.16l-0.02-0.9v-1.19l0.02-0.42l0.02-0.78V67.8l-0.02-0.22l-0.05-0.75l-0.02-0.24l0.02-0.37l0.02-0.88l0.11-1.24
		v-1.24l-0.03-0.37l-0.02-0.83l-0.06-0.39l-0.14-0.29l-0.05-0.29l0.16-0.39l0.28-0.37l0.33-0.02l0.16,0.07l0.22,0.08l0.28,0.1
		l0.75,0.46h0.13l0.39,0.27l0.28,0.14l0.27,0.32L128.52,61.7z"/>
	<path class="st1" d="M146.02,71.31l-0.17,0.31l-0.31,0.34l-0.48,0.71l-0.36,0.85l-1.01-0.31l-0.55-0.19l-0.61-0.07h-0.34
		l-0.16-0.05l-0.98-0.12v-0.05l-0.64-0.08l-0.56,0.03l-0.34-0.02l-0.48,0.07l-0.38-0.05l-0.11,0.02v0.07l-0.5-0.03l-0.66,0.08
		l-0.27-0.02l-0.22,0.05h-0.44L136,72.97l-0.67,0.17l-0.22,0.02l-0.06,0.05l-0.34,0.03l-0.22,0.12l-0.42,0.09l-0.19,0.05l-0.7,0.15
		l-0.28,0.19l-0.3,0.05l-0.31,0.14l-0.64,0.1h-0.45l0.06-0.54l0.06-0.34l0.37-1.1h0.66l0.59,0.1l0.48-0.17l0.45-0.17l0.3-0.03
		l1.9-0.41l1.98-0.39l2.56-0.25l1.3-0.05l0.67,0.05l1.19-0.17h1.72l0.45,0.14L146.02,71.31z M144.9,67.69l-0.22,0.31l-0.59,0.2
		l-0.33,0.05l-0.69,0.25l-0.44,0.12l-0.58,0.07l-0.39-0.41l-0.17-0.41l-0.22-0.56l-0.06-0.53l-0.31-0.48l-0.06-0.07l-0.27-0.49
		l-0.11-0.19l-0.05-0.02l-0.92,1.29l-0.23,0.29l-1.45,1.51l-0.84,0.75l-0.23,0.07l-0.27,0.2l-0.64,0.39l-0.2,0.24l-0.55,0.05
		l-0.77-0.27l-0.45-0.19l-0.45-0.39l-0.52-0.56l0.17-0.25l0.59-0.27l0.38-0.29l0.87-0.41l0.39-0.2l0.97-0.9l0.44-0.31l0.78-0.65
		l0.41-0.34l0.34-0.31l0.09-0.22l0.86-0.88l-0.58,0.08l-0.62,0.05l-0.48,0.05l-0.53-0.03l-0.37-0.08l-0.52-0.02l-0.89-0.31
		l-0.45-0.53l-0.03-0.71l0.14-0.22l0.14-0.37l0.56-0.05l0.78,0.07l0.69-0.07l0.61-0.12l0.2-0.05l0.72-0.07l0.37-0.05l0.59-0.02
		l0.64-0.03h0.34l0.7-0.02l0.5,0.03l1.92-0.12l0.37,0.44l-0.03,0.63l-0.64,0.56l-0.52,0.24l-0.78,0.54l-0.28,0.54l0.16,0.24
		l0.89,0.7l0.48,0.49l0.27,0.27l0.56,0.63l0.47,0.43v0.1l0.19,0.1L144.9,67.69z"/>
</g>
</svg>
