<?xml version="1.0" encoding="UTF-8"?>
<svg width="27px" height="27px" viewBox="0 0 27 27" version="1.1" xmlns="http://www.w3.org/2000/svg" xmlns:xlink="http://www.w3.org/1999/xlink">
    <!-- Generator: sketchtool 52.5 (67469) - http://www.bohemiancoding.com/sketch -->
    <title>0A8037BE-7A0D-405E-94EA-D8F53FED3D1F</title>
    <desc>Created with sketchtool.</desc>
    <g id="상세페이지_가이드" stroke="none" stroke-width="1" fill="none" fill-rule="evenodd">
        <g id="mobile" transform="translate(-884.000000, -4196.000000)" fill="#EB5500">
            <g id="Group-5-Copy-2" transform="translate(885.000000, 4197.000000)">
                <path d="M12.8934426,1.49180328 C6.60655738,1.49180328 1.49180328,6.60655738 1.49180328,12.8934426 C1.49180328,19.1803279 6.60655738,24.295082 12.8934426,24.295082 C19.1803279,24.295082 24.295082,19.1803279 24.295082,12.8934426 C24.295082,6.60655738 19.1803279,1.49180328 12.8934426,1.49180328 M12.8934426,25.7868852 C5.78393443,25.7868852 0,20.0029508 0,12.8934426 C0,5.78393443 5.78393443,0 12.8934426,0 C20.0029508,0 25.7868852,5.78393443 25.7868852,12.8934426 C25.7868852,20.0029508 20.0029508,25.7868852 12.8934426,25.7868852" id="Fill-1" stroke="#EB5500" stroke-width="0.4"></path>
                <path d="M11.3167344,11.6047803 C11.3167344,11.368223 11.5093902,11.1973049 11.7242098,11.1973049 L14.0833902,11.1973049 C14.2982098,11.1973049 14.4908656,11.368223 14.4908656,11.6047803 L14.4908656,19.7773049 C14.4908656,19.9921246 14.2982098,20.1847803 14.0833902,20.1847803 L11.7242098,20.1847803 C11.5093902,20.1847803 11.3167344,19.9921246 11.3167344,19.7773049 L11.3167344,11.6047803 Z M11.1884393,7.3173377 C11.1884393,6.37451803 11.9390295,5.60219016 12.8822754,5.60219016 C13.8263738,5.60219016 14.5982754,6.37451803 14.5982754,7.3173377 C14.5982754,8.26143607 13.8263738,9.01202623 12.8822754,9.01202623 C11.9390295,9.01202623 11.1884393,8.26143607 11.1884393,7.3173377 Z" id="Fill-3" transform="translate(12.893357, 12.893485) rotate(-180.000000) translate(-12.893357, -12.893485) "></path>
            </g>
        </g>
    </g>
</svg>