<?xml version="1.0" encoding="utf-8"?>
<!-- Generator: Adobe Illustrator 23.0.0, SVG Export Plug-In . SVG Version: 6.00 Build 0)  -->
<svg version="1.1" id="Layer_1" xmlns="http://www.w3.org/2000/svg" xmlns:xlink="http://www.w3.org/1999/xlink" x="0px" y="0px"
	 viewBox="0 0 300 300" style="enable-background:new 0 0 300 300;" xml:space="preserve">
<style type="text/css">
	.st0{fill:none;stroke:#9C0A1F;stroke-width:3;stroke-miterlimit:10;}
	.st1{opacity:0.5;fill:none;stroke:#9C0A1F;stroke-width:3;stroke-miterlimit:10;}
</style>
<circle class="st0" cx="148.92" cy="146.08" r="39.92"/>
<circle class="st1" cx="188.83" cy="159.97" r="25.17"/>
<g>
	<g>
		<path d="M132.41,136.67h-11.52v-3.15h28.01v3.15h-11.58v25.68h-4.91V136.67z"/>
		<path d="M153.08,133.92c2.16-0.36,5.54-0.62,8.92-0.62c4.9,0,8.04,0.63,10.38,2.09c1.96,1.13,3.16,2.85,3.16,5.1
			c0,2.79-2.44,5.24-6.4,6.31v0.11c3.6,0.66,7.81,2.92,7.81,7.23c0,2.46-1.28,4.37-3.24,5.74c-2.6,1.87-6.86,2.71-13.06,2.71
			c-3.39,0-5.95-0.18-7.59-0.32V133.92z M157.96,145.72h4.48c5.11,0,8.14-2.07,8.14-4.87c0-3.34-3.32-4.69-8.27-4.69
			c-2.27,0-3.55,0.13-4.35,0.27V145.72z M157.96,159.51c1,0.15,2.35,0.19,4.12,0.19c5.07,0,9.74-1.42,9.74-5.61
			c0-3.92-4.45-5.56-9.79-5.57h-4.07V159.51z"/>
	</g>
</g>
</svg>
